solid OpenSCAD_Model
  facet normal 0.182551 -0.62757 -0.756856
    outer loop
      vertex 18.382 -9.12496 0
      vertex 15.3738 -10 0
      vertex 18.382 -7.70721 -1.17557
    endloop
  endfacet
  facet normal 0.182555 -0.627569 -0.756856
    outer loop
      vertex 22 -8.0725 0
      vertex 24.8754 0 -6
      vertex 49.7508 0 0
    endloop
  endfacet
  facet normal 0.18255 -0.627569 -0.756857
    outer loop
      vertex 20.618 -6.18053 -1.90211
      vertex 24.8754 0 -6
      vertex 22 -8.0725 0
    endloop
  endfacet
  facet normal 0.182558 -0.627563 -0.75686
    outer loop
      vertex 7.68692 -5 -6
      vertex 20.618 -6.18053 -1.90211
      vertex 18.382 -7.70721 -1.17557
    endloop
  endfacet
  facet normal 0.182553 -0.627572 -0.756854
    outer loop
      vertex 7.68692 -5 -6
      vertex 18.382 -7.70721 -1.17557
      vertex 15.3738 -10 0
    endloop
  endfacet
  facet normal 0.182556 -0.627571 -0.756854
    outer loop
      vertex 20.618 -6.18053 -1.90211
      vertex 7.68692 -5 -6
      vertex 24.8754 0 -6
    endloop
  endfacet
  facet normal 0.182551 0.62757 0.756856
    outer loop
      vertex 15.3738 10 0
      vertex 18.382 7.70721 1.17557
      vertex 18.382 9.12496 0
    endloop
  endfacet
  facet normal 0.182549 0.627568 0.756858
    outer loop
      vertex 18.382 7.70721 1.17557
      vertex 15.3738 10 0
      vertex 17.1868 6.31084 2.62168
    endloop
  endfacet
  facet normal 0.182556 0.62757 0.756855
    outer loop
      vertex 17.1868 6.31084 2.62168
      vertex 15.3738 10 0
      vertex 9.82734 6.39225 4.3293
    endloop
  endfacet
  facet normal 0.182555 0.627569 0.756856
    outer loop
      vertex 22 8.0725 0
      vertex 34.9876 0 3.56091
      vertex 49.7508 0 0
    endloop
  endfacet
  facet normal 0.182554 0.627567 0.756858
    outer loop
      vertex 20.618 6.18053 1.90211
      vertex 34.9876 0 3.56091
      vertex 22 8.0725 0
    endloop
  endfacet
  facet normal 0.182558 0.627574 0.756851
    outer loop
      vertex 20.618 6.18053 1.90211
      vertex 20.1065 5.27573 2.77574
      vertex 34.9876 0 3.56091
    endloop
  endfacet
  facet normal 0.182566 0.627571 0.756852
    outer loop
      vertex 18.382 7.70721 1.17557
      vertex 20.1065 5.27573 2.77574
      vertex 20.618 6.18053 1.90211
    endloop
  endfacet
  facet normal 0.182552 0.627566 0.756859
    outer loop
      vertex 20.1065 5.27573 2.77574
      vertex 18.382 7.70721 1.17557
      vertex 17.1868 6.31084 2.62168
    endloop
  endfacet
  facet normal -0.285714 0 0.958315
    outer loop
      vertex -40.2492 6.18034 0
      vertex -20.1246 -3.09017 6
      vertex -20.1246 3.09017 6
    endloop
  endfacet
  facet normal -0.285714 0 0.958315
    outer loop
      vertex -20.1246 -3.09017 6
      vertex -40.2492 6.18034 0
      vertex -40.2492 -6.18034 0
    endloop
  endfacet
  facet normal -0.0549758 0.800571 0.596711
    outer loop
      vertex -12.3607 4.36868 5
      vertex -20.1246 3.09017 6
      vertex -10.87 3.72569 6
    endloop
  endfacet
  facet normal -0.0549778 0.800576 0.596703
    outer loop
      vertex -12.0171 4.56404 4.76955
      vertex -20.1246 3.09017 6
      vertex -12.3607 4.36868 5
    endloop
  endfacet
  facet normal -0.0549757 0.800571 0.596711
    outer loop
      vertex -12.0171 4.56404 4.76955
      vertex -40.2492 6.18034 0
      vertex -20.1246 3.09017 6
    endloop
  endfacet
  facet normal -0.0549757 0.800571 0.596711
    outer loop
      vertex -40.2492 6.18034 0
      vertex -12.0171 4.56404 4.76955
      vertex -3.51293 5.27578 4.59815
    endloop
  endfacet
  facet normal -0.0549757 0.800571 0.59671
    outer loop
      vertex -18 7.7082 0
      vertex -3.51293 5.27578 4.59815
      vertex 15.3738 10 0
    endloop
  endfacet
  facet normal -0.0549757 0.800572 0.59671
    outer loop
      vertex -3.51293 5.27578 4.59815
      vertex -18 7.7082 0
      vertex -19.382 6.19555 1.90211
    endloop
  endfacet
  facet normal -0.0549755 0.800571 0.596711
    outer loop
      vertex 15.3738 10 0
      vertex -3.51293 5.27578 4.59815
      vertex 9.82734 6.39225 4.3293
    endloop
  endfacet
  facet normal -0.0549754 0.800572 0.596709
    outer loop
      vertex -19.382 6.19555 1.90211
      vertex -40.2492 6.18034 0
      vertex -3.51293 5.27578 4.59815
    endloop
  endfacet
  facet normal -0.0549752 0.800574 0.596707
    outer loop
      vertex -21.618 6.58353 1.17557
      vertex -40.2492 6.18034 0
      vertex -19.382 6.19555 1.90211
    endloop
  endfacet
  facet normal -0.0549754 0.800571 0.596711
    outer loop
      vertex -40.2492 6.18034 0
      vertex -21.618 6.58353 1.17557
      vertex -21.618 7.45975 0
    endloop
  endfacet
  facet normal 0.182555 -0.627569 0.756856
    outer loop
      vertex 34.9876 0 3.56091
      vertex 22 -8.0725 0
      vertex 49.7508 0 0
    endloop
  endfacet
  facet normal 0.182554 -0.627567 0.756858
    outer loop
      vertex 34.9876 0 3.56091
      vertex 20.618 -6.18053 1.90211
      vertex 22 -8.0725 0
    endloop
  endfacet
  facet normal 0.182558 -0.627574 0.756851
    outer loop
      vertex 20.1065 -5.27573 2.77574
      vertex 20.618 -6.18053 1.90211
      vertex 34.9876 0 3.56091
    endloop
  endfacet
  facet normal 0.182566 -0.627571 0.756852
    outer loop
      vertex 20.1065 -5.27573 2.77574
      vertex 18.382 -7.70721 1.17557
      vertex 20.618 -6.18053 1.90211
    endloop
  endfacet
  facet normal 0.182552 -0.627566 0.756859
    outer loop
      vertex 17.1868 -6.31084 2.62168
      vertex 18.382 -7.70721 1.17557
      vertex 20.1065 -5.27573 2.77574
    endloop
  endfacet
  facet normal 0.182549 -0.627568 0.756858
    outer loop
      vertex 15.3738 -10 0
      vertex 18.382 -7.70721 1.17557
      vertex 17.1868 -6.31084 2.62168
    endloop
  endfacet
  facet normal 0.182551 -0.62757 0.756856
    outer loop
      vertex 18.382 -7.70721 1.17557
      vertex 15.3738 -10 0
      vertex 18.382 -9.12496 0
    endloop
  endfacet
  facet normal 0.182556 -0.62757 0.756855
    outer loop
      vertex 15.3738 -10 0
      vertex 17.1868 -6.31084 2.62168
      vertex 9.82734 -6.39225 4.3293
    endloop
  endfacet
  facet normal -0.0549754 -0.800571 -0.596711
    outer loop
      vertex -40.2492 -6.18034 0
      vertex -21.618 -6.58353 -1.17557
      vertex -21.618 -7.45975 0
    endloop
  endfacet
  facet normal -0.0549752 -0.800574 -0.596707
    outer loop
      vertex -40.2492 -6.18034 0
      vertex -19.382 -6.19555 -1.90211
      vertex -21.618 -6.58353 -1.17557
    endloop
  endfacet
  facet normal -0.0549755 -0.800572 -0.59671
    outer loop
      vertex -19.382 -6.19555 -1.90211
      vertex -40.2492 -6.18034 0
      vertex 7.68692 -5 -6
    endloop
  endfacet
  facet normal -0.0549756 -0.800572 -0.59671
    outer loop
      vertex 7.68692 -5 -6
      vertex -18 -7.7082 0
      vertex -19.382 -6.19555 -1.90211
    endloop
  endfacet
  facet normal -0.0549757 -0.800571 -0.596711
    outer loop
      vertex -18 -7.7082 0
      vertex 7.68692 -5 -6
      vertex 15.3738 -10 0
    endloop
  endfacet
  facet normal -0.0549756 0.800571 -0.596711
    outer loop
      vertex -20.1246 3.09017 -6
      vertex -40.2492 6.18034 0
      vertex 7.68692 5 -6
    endloop
  endfacet
  facet normal -0.0549757 0.800571 -0.596711
    outer loop
      vertex 7.68692 5 -6
      vertex -18 7.7082 0
      vertex 15.3738 10 0
    endloop
  endfacet
  facet normal -0.0549756 0.800572 -0.59671
    outer loop
      vertex -18 7.7082 0
      vertex 7.68692 5 -6
      vertex -19.382 6.19555 -1.90211
    endloop
  endfacet
  facet normal -0.0549754 0.800571 -0.596711
    outer loop
      vertex -21.618 6.58353 -1.17557
      vertex -40.2492 6.18034 0
      vertex -21.618 7.45975 0
    endloop
  endfacet
  facet normal -0.0549752 0.800574 -0.596707
    outer loop
      vertex -19.382 6.19555 -1.90211
      vertex -40.2492 6.18034 0
      vertex -21.618 6.58353 -1.17557
    endloop
  endfacet
  facet normal -0.0549755 0.800572 -0.59671
    outer loop
      vertex -40.2492 6.18034 0
      vertex -19.382 6.19555 -1.90211
      vertex 7.68692 5 -6
    endloop
  endfacet
  facet normal 0.182555 0.627569 -0.756856
    outer loop
      vertex 24.8754 0 -6
      vertex 22 8.0725 0
      vertex 49.7508 0 0
    endloop
  endfacet
  facet normal 0.18255 0.627569 -0.756857
    outer loop
      vertex 24.8754 0 -6
      vertex 20.618 6.18053 -1.90211
      vertex 22 8.0725 0
    endloop
  endfacet
  facet normal 0.182556 0.627571 -0.756854
    outer loop
      vertex 7.68692 5 -6
      vertex 20.618 6.18053 -1.90211
      vertex 24.8754 0 -6
    endloop
  endfacet
  facet normal 0.182551 0.62757 -0.756856
    outer loop
      vertex 18.382 7.70721 -1.17557
      vertex 15.3738 10 0
      vertex 18.382 9.12496 0
    endloop
  endfacet
  facet normal 0.182558 0.627563 -0.75686
    outer loop
      vertex 20.618 6.18053 -1.90211
      vertex 7.68692 5 -6
      vertex 18.382 7.70721 -1.17557
    endloop
  endfacet
  facet normal 0.182553 0.627572 -0.756854
    outer loop
      vertex 18.382 7.70721 -1.17557
      vertex 7.68692 5 -6
      vertex 15.3738 10 0
    endloop
  endfacet
  facet normal -0.0549757 -0.800572 0.59671
    outer loop
      vertex -18 -7.7082 0
      vertex -3.51293 -5.27578 4.59815
      vertex -19.382 -6.19555 1.90211
    endloop
  endfacet
  facet normal -0.0549754 -0.800572 0.596709
    outer loop
      vertex -40.2492 -6.18034 0
      vertex -19.382 -6.19555 1.90211
      vertex -3.51293 -5.27578 4.59815
    endloop
  endfacet
  facet normal -0.0549752 -0.800574 0.596707
    outer loop
      vertex -40.2492 -6.18034 0
      vertex -21.618 -6.58353 1.17557
      vertex -19.382 -6.19555 1.90211
    endloop
  endfacet
  facet normal -0.0549754 -0.800571 0.596711
    outer loop
      vertex -21.618 -6.58353 1.17557
      vertex -40.2492 -6.18034 0
      vertex -21.618 -7.45975 0
    endloop
  endfacet
  facet normal -0.0549757 -0.800571 0.59671
    outer loop
      vertex 15.3738 -10 0
      vertex -3.51293 -5.27578 4.59815
      vertex -18 -7.7082 0
    endloop
  endfacet
  facet normal -0.0549755 -0.800571 0.596711
    outer loop
      vertex -3.51293 -5.27578 4.59815
      vertex 15.3738 -10 0
      vertex 9.82734 -6.39225 4.3293
    endloop
  endfacet
  facet normal -0.0549756 -0.800571 -0.596711
    outer loop
      vertex 7.68692 -5 -6
      vertex -40.2492 -6.18034 0
      vertex -20.1246 -3.09017 -6
    endloop
  endfacet
  facet normal -0.0549758 -0.800571 0.596711
    outer loop
      vertex -20.1246 -3.09017 6
      vertex -12.3607 -4.36868 5
      vertex -10.87 -3.72569 6
    endloop
  endfacet
  facet normal -0.0549778 -0.800576 0.596703
    outer loop
      vertex -20.1246 -3.09017 6
      vertex -12.0171 -4.56404 4.76955
      vertex -12.3607 -4.36868 5
    endloop
  endfacet
  facet normal -0.0549757 -0.800571 0.596711
    outer loop
      vertex -12.0171 -4.56404 4.76955
      vertex -40.2492 -6.18034 0
      vertex -3.51293 -5.27578 4.59815
    endloop
  endfacet
  facet normal -0.0549757 -0.800571 0.596711
    outer loop
      vertex -40.2492 -6.18034 0
      vertex -12.0171 -4.56404 4.76955
      vertex -20.1246 -3.09017 6
    endloop
  endfacet
  facet normal -0 0 1
    outer loop
      vertex -20.1246 3.09017 6
      vertex -10.87 -3.72569 6
      vertex -10.87 3.72569 6
    endloop
  endfacet
  facet normal 0 0 1
    outer loop
      vertex -10.87 -3.72569 6
      vertex -20.1246 3.09017 6
      vertex -20.1246 -3.09017 6
    endloop
  endfacet
  facet normal -0.285714 0 -0.958315
    outer loop
      vertex -40.2492 -6.18034 0
      vertex -20.1246 3.09017 -6
      vertex -20.1246 -3.09017 -6
    endloop
  endfacet
  facet normal -0.285714 0 -0.958315
    outer loop
      vertex -20.1246 3.09017 -6
      vertex -40.2492 -6.18034 0
      vertex -40.2492 6.18034 0
    endloop
  endfacet
  facet normal 0 0 -1
    outer loop
      vertex 7.68692 -5 -6
      vertex 7.68692 5 -6
      vertex 24.8754 0 -6
    endloop
  endfacet
  facet normal 0 0 -1
    outer loop
      vertex -20.1246 -3.09017 -6
      vertex 7.68692 5 -6
      vertex 7.68692 -5 -6
    endloop
  endfacet
  facet normal 0 0 -1
    outer loop
      vertex 7.68692 5 -6
      vertex -20.1246 -3.09017 -6
      vertex -20.1246 3.09017 -6
    endloop
  endfacet
  facet normal -0.0843263 0.909619 0.406794
    outer loop
      vertex 18.541 7.5 5
      vertex -1.18034 2.31763 12.5
      vertex 14.2705 3.75 12.5
    endloop
  endfacet
  facet normal -0.0843265 0.90962 0.406794
    outer loop
      vertex -1.18034 2.31763 12.5
      vertex 18.541 7.5 5
      vertex -12.3607 4.63525 5
    endloop
  endfacet
  facet normal 0 0 1
    outer loop
      vertex 14.2705 3.75 12.5
      vertex 14.2705 -3.75 12.5
      vertex 23.8197 0 12.5
    endloop
  endfacet
  facet normal -0 0 1
    outer loop
      vertex -1.18034 2.31763 12.5
      vertex 14.2705 -3.75 12.5
      vertex 14.2705 3.75 12.5
    endloop
  endfacet
  facet normal 0 0 1
    outer loop
      vertex 14.2705 -3.75 12.5
      vertex -1.18034 2.31763 12.5
      vertex -1.18034 -2.31763 12.5
    endloop
  endfacet
  facet normal 0.303174 0.772018 0.558636
    outer loop
      vertex 18.541 7.5 5
      vertex 14.2705 3.75 12.5
      vertex 23.8197 0 12.5
    endloop
  endfacet
  facet normal 0.303177 -0.772017 -0.558635
    outer loop
      vertex 18.541 -7.5 5
      vertex 17.1868 -6.31084 2.62168
      vertex 20.1065 -5.27573 2.77574
    endloop
  endfacet
  facet normal -0.0843265 -0.90962 0.406794
    outer loop
      vertex 18.541 -7.5 5
      vertex -1.18034 -2.31763 12.5
      vertex -12.3607 -4.63525 5
    endloop
  endfacet
  facet normal -0.0843263 -0.909619 0.406794
    outer loop
      vertex -1.18034 -2.31763 12.5
      vertex 18.541 -7.5 5
      vertex 14.2705 -3.75 12.5
    endloop
  endfacet
  facet normal 0.303175 0.772017 -0.558637
    outer loop
      vertex 34.9876 0 3.56091
      vertex 18.541 7.5 5
      vertex 37.6393 0 5
    endloop
  endfacet
  facet normal 0.303175 0.772017 -0.558637
    outer loop
      vertex 18.541 7.5 5
      vertex 34.9876 0 3.56091
      vertex 20.1065 5.27573 2.77574
    endloop
  endfacet
  facet normal 0.303175 0.772018 0.558635
    outer loop
      vertex 37.6393 0 5
      vertex 18.541 7.5 5
      vertex 23.8197 0 12.5
    endloop
  endfacet
  facet normal -0.557013 0 -0.830504
    outer loop
      vertex -12.0171 -4.56404 4.76955
      vertex -12.3607 -4.63525 5
      vertex -12.3607 -4.36868 5
    endloop
  endfacet
  facet normal -0.557013 0 -0.830504
    outer loop
      vertex -12.0171 4.56404 4.76955
      vertex -12.3607 4.36868 5
      vertex -12.3607 4.63525 5
    endloop
  endfacet
  facet normal -0.0843275 -0.909614 -0.406806
    outer loop
      vertex -3.51293 -5.27578 4.59815
      vertex -12.3607 -4.63525 5
      vertex -12.0171 -4.56404 4.76955
    endloop
  endfacet
  facet normal -0.0843271 -0.909626 -0.406779
    outer loop
      vertex -12.3607 -4.63525 5
      vertex -3.51293 -5.27578 4.59815
      vertex 18.541 -7.5 5
    endloop
  endfacet
  facet normal -0.0843257 -0.909616 -0.406802
    outer loop
      vertex 9.82734 -6.39225 4.3293
      vertex 18.541 -7.5 5
      vertex -3.51293 -5.27578 4.59815
    endloop
  endfacet
  facet normal -0.0843266 -0.909619 -0.406795
    outer loop
      vertex 18.541 -7.5 5
      vertex 9.82734 -6.39225 4.3293
      vertex 17.1868 -6.31084 2.62168
    endloop
  endfacet
  facet normal -0.557085 0 0.830456
    outer loop
      vertex -1.18034 2.31763 12.5
      vertex -10.87 3.72569 6
      vertex -1.18034 -2.31763 12.5
    endloop
  endfacet
  facet normal -0.557083 1.36053e-05 0.830457
    outer loop
      vertex -12.3607 4.63525 5
      vertex -10.87 3.72569 6
      vertex -1.18034 2.31763 12.5
    endloop
  endfacet
  facet normal -0.557089 0 0.830453
    outer loop
      vertex -10.87 3.72569 6
      vertex -12.3607 4.63525 5
      vertex -12.3607 4.36868 5
    endloop
  endfacet
  facet normal -0.557085 0 0.830456
    outer loop
      vertex -10.87 -3.72569 6
      vertex -1.18034 -2.31763 12.5
      vertex -10.87 3.72569 6
    endloop
  endfacet
  facet normal -0.557089 0 0.830453
    outer loop
      vertex -12.3607 -4.63525 5
      vertex -10.87 -3.72569 6
      vertex -12.3607 -4.36868 5
    endloop
  endfacet
  facet normal -0.557083 -1.36053e-05 0.830457
    outer loop
      vertex -10.87 -3.72569 6
      vertex -12.3607 -4.63525 5
      vertex -1.18034 -2.31763 12.5
    endloop
  endfacet
  facet normal 0.303175 -0.772017 -0.558637
    outer loop
      vertex 18.541 -7.5 5
      vertex 34.9876 0 3.56091
      vertex 37.6393 0 5
    endloop
  endfacet
  facet normal 0.303175 -0.772017 -0.558637
    outer loop
      vertex 34.9876 0 3.56091
      vertex 18.541 -7.5 5
      vertex 20.1065 -5.27573 2.77574
    endloop
  endfacet
  facet normal 0.303175 -0.772018 0.558635
    outer loop
      vertex 23.8197 0 12.5
      vertex 18.541 -7.5 5
      vertex 37.6393 0 5
    endloop
  endfacet
  facet normal 0.303177 0.772017 -0.558635
    outer loop
      vertex 20.1065 5.27573 2.77574
      vertex 17.1868 6.31084 2.62168
      vertex 18.541 7.5 5
    endloop
  endfacet
  facet normal 0.303174 -0.772018 0.558636
    outer loop
      vertex 23.8197 0 12.5
      vertex 14.2705 -3.75 12.5
      vertex 18.541 -7.5 5
    endloop
  endfacet
  facet normal -0.0843271 0.909626 -0.406779
    outer loop
      vertex -3.51293 5.27578 4.59815
      vertex -12.3607 4.63525 5
      vertex 18.541 7.5 5
    endloop
  endfacet
  facet normal -0.0843275 0.909614 -0.406806
    outer loop
      vertex -12.3607 4.63525 5
      vertex -3.51293 5.27578 4.59815
      vertex -12.0171 4.56404 4.76955
    endloop
  endfacet
  facet normal -0.0843257 0.909616 -0.406802
    outer loop
      vertex 18.541 7.5 5
      vertex 9.82734 6.39225 4.3293
      vertex -3.51293 5.27578 4.59815
    endloop
  endfacet
  facet normal -0.0843266 0.909619 -0.406795
    outer loop
      vertex 9.82734 6.39225 4.3293
      vertex 18.541 7.5 5
      vertex 17.1868 6.31084 2.62168
    endloop
  endfacet
  facet normal -0.0323075 -0.98501 0.169446
    outer loop
      vertex -15.8444 -15.5125 8
      vertex -19.0579 -15.4071 8
      vertex -18.1157 -16.8142 0
    endloop
  endfacet
  facet normal 0.608391 0.77534 0.169437
    outer loop
      vertex -16.7477 -13.0554 0
      vertex -18.3738 -13.5277 8
      vertex -11.6888 -17.025 0
    endloop
  endfacet
  facet normal 0.608397 0.775333 0.169446
    outer loop
      vertex -11.6888 -17.025 0
      vertex -18.3738 -13.5277 8
      vertex -15.8444 -15.5125 8
    endloop
  endfacet
  facet normal -0.857808 0.312253 0.408244
    outer loop
      vertex -26.3011 -10.3912 0
      vertex -27.1467 -12.7142 0
      vertex -23.1506 -12.1956 8
    endloop
  endfacet
  facet normal 0.266947 0.957325 -0.110759
    outer loop
      vertex -16.7477 -13.0554 0
      vertex -19.382 -12.5409 -1.90211
      vertex -18 -12.7062 0
    endloop
  endfacet
  facet normal 0.266958 0.95732 -0.110775
    outer loop
      vertex -19.382 -12.5409 -1.90211
      vertex -16.7477 -13.0554 0
      vertex -23.1506 -12.1956 -8
    endloop
  endfacet
  facet normal 0.266972 0.957319 -0.110751
    outer loop
      vertex -21.618 -11.8332 -1.17557
      vertex -26.3011 -10.3912 0
      vertex -21.618 -11.6972 0
    endloop
  endfacet
  facet normal 0.26699 0.957309 -0.110796
    outer loop
      vertex -23.1506 -12.1956 -8
      vertex -21.618 -11.8332 -1.17557
      vertex -19.382 -12.5409 -1.90211
    endloop
  endfacet
  facet normal 0.266962 0.957317 -0.11079
    outer loop
      vertex -21.618 -11.8332 -1.17557
      vertex -23.1506 -12.1956 -8
      vertex -26.3011 -10.3912 0
    endloop
  endfacet
  facet normal -0.410841 -0.904951 0.110783
    outer loop
      vertex -19.0579 -15.4071 8
      vertex -27.1467 -12.7142 0
      vertex -18.1157 -16.8142 0
    endloop
  endfacet
  facet normal -0.857826 0.312185 0.408258
    outer loop
      vertex -23.1506 -12.1956 8
      vertex -27.1467 -12.7142 0
      vertex -23.5733 -13.3571 8
    endloop
  endfacet
  facet normal 0.266958 0.95732 0.110775
    outer loop
      vertex -16.7477 -13.0554 0
      vertex -19.382 -12.5409 1.90211
      vertex -23.1506 -12.1956 8
    endloop
  endfacet
  facet normal 0.266947 0.957325 0.110759
    outer loop
      vertex -19.382 -12.5409 1.90211
      vertex -16.7477 -13.0554 0
      vertex -18 -12.7062 0
    endloop
  endfacet
  facet normal 0.26699 0.957309 0.110796
    outer loop
      vertex -21.618 -11.8332 1.17557
      vertex -23.1506 -12.1956 8
      vertex -19.382 -12.5409 1.90211
    endloop
  endfacet
  facet normal 0.266972 0.957319 0.110751
    outer loop
      vertex -26.3011 -10.3912 0
      vertex -21.618 -11.8332 1.17557
      vertex -21.618 -11.6972 0
    endloop
  endfacet
  facet normal 0.266962 0.957317 0.11079
    outer loop
      vertex -21.618 -11.8332 1.17557
      vertex -26.3011 -10.3912 0
      vertex -23.1506 -12.1956 8
    endloop
  endfacet
  facet normal 0.266966 0.957317 0.110782
    outer loop
      vertex -16.7477 -13.0554 0
      vertex -23.1506 -12.1956 8
      vertex -18.3738 -13.5277 8
    endloop
  endfacet
  facet normal -0.0323075 -0.98501 -0.169446
    outer loop
      vertex -18.1157 -16.8142 0
      vertex -19.0579 -15.4071 -8
      vertex -15.8444 -15.5125 -8
    endloop
  endfacet
  facet normal -0.410841 -0.904951 -0.110783
    outer loop
      vertex -18.1157 -16.8142 0
      vertex -27.1467 -12.7142 0
      vertex -19.0579 -15.4071 -8
    endloop
  endfacet
  facet normal 0.266966 0.957317 -0.110782
    outer loop
      vertex -18.3738 -13.5277 -8
      vertex -23.1506 -12.1956 -8
      vertex -16.7477 -13.0554 0
    endloop
  endfacet
  facet normal 0.608391 0.77534 -0.169437
    outer loop
      vertex -11.6888 -17.025 0
      vertex -18.3738 -13.5277 -8
      vertex -16.7477 -13.0554 0
    endloop
  endfacet
  facet normal 0.608397 0.775333 -0.169446
    outer loop
      vertex -15.8444 -15.5125 -8
      vertex -18.3738 -13.5277 -8
      vertex -11.6888 -17.025 0
    endloop
  endfacet
  facet normal -0.410848 -0.904947 0.110792
    outer loop
      vertex -23.5733 -13.3571 8
      vertex -27.1467 -12.7142 0
      vertex -19.0579 -15.4071 8
    endloop
  endfacet
  facet normal 0 0 1
    outer loop
      vertex -18.3738 -13.5277 8
      vertex -19.0579 -15.4071 8
      vertex -15.8444 -15.5125 8
    endloop
  endfacet
  facet normal 0 0 1
    outer loop
      vertex -23.1506 -12.1956 8
      vertex -19.0579 -15.4071 8
      vertex -18.3738 -13.5277 8
    endloop
  endfacet
  facet normal 0 0 1
    outer loop
      vertex -19.0579 -15.4071 8
      vertex -23.1506 -12.1956 8
      vertex -23.5733 -13.3571 8
    endloop
  endfacet
  facet normal -0.032308 -0.98501 -0.169446
    outer loop
      vertex -11.6888 -17.025 0
      vertex -18.1157 -16.8142 0
      vertex -15.8444 -15.5125 -8
    endloop
  endfacet
  facet normal -0.032308 -0.98501 0.169446
    outer loop
      vertex -15.8444 -15.5125 8
      vertex -18.1157 -16.8142 0
      vertex -11.6888 -17.025 0
    endloop
  endfacet
  facet normal -0.857826 0.312185 -0.408258
    outer loop
      vertex -23.5733 -13.3571 -8
      vertex -27.1467 -12.7142 0
      vertex -23.1506 -12.1956 -8
    endloop
  endfacet
  facet normal -0.857808 0.312253 -0.408244
    outer loop
      vertex -23.1506 -12.1956 -8
      vertex -27.1467 -12.7142 0
      vertex -26.3011 -10.3912 0
    endloop
  endfacet
  facet normal -0.410848 -0.904947 -0.110792
    outer loop
      vertex -19.0579 -15.4071 -8
      vertex -27.1467 -12.7142 0
      vertex -23.5733 -13.3571 -8
    endloop
  endfacet
  facet normal 0 0 -1
    outer loop
      vertex -19.0579 -15.4071 -8
      vertex -18.3738 -13.5277 -8
      vertex -15.8444 -15.5125 -8
    endloop
  endfacet
  facet normal 0 0 -1
    outer loop
      vertex -19.0579 -15.4071 -8
      vertex -23.1506 -12.1956 -8
      vertex -18.3738 -13.5277 -8
    endloop
  endfacet
  facet normal 0 -0 -1
    outer loop
      vertex -23.1506 -12.1956 -8
      vertex -19.0579 -15.4071 -8
      vertex -23.5733 -13.3571 -8
    endloop
  endfacet
  facet normal -0.0323075 -0.985011 0.169439
    outer loop
      vertex -18.1381 11.2193 0.19012
      vertex -15.8444 12.4875 8
      vertex -19.0579 12.5929 8
    endloop
  endfacet
  facet normal -0.0322923 -0.985012 0.169434
    outer loop
      vertex -15.8444 12.4875 8
      vertex -18.1381 11.2193 0.19012
      vertex -18.0832 11.2045 0.114543
    endloop
  endfacet
  facet normal 0.608391 0.77534 0.169437
    outer loop
      vertex -16.7477 14.9446 0
      vertex -18.3738 14.4723 8
      vertex -11.6888 10.975 0
    endloop
  endfacet
  facet normal 0.608397 0.775333 0.169446
    outer loop
      vertex -11.6888 10.975 0
      vertex -18.3738 14.4723 8
      vertex -15.8444 12.4875 8
    endloop
  endfacet
  facet normal -0.857808 0.312253 0.408244
    outer loop
      vertex -26.3011 17.6088 0
      vertex -27.1467 15.2858 0
      vertex -23.1506 15.8044 8
    endloop
  endfacet
  facet normal 0.266971 0.957316 -0.110786
    outer loop
      vertex -23.1506 15.8044 -8
      vertex -26.3011 17.6088 0
      vertex -16.7477 14.9446 0
    endloop
  endfacet
  facet normal -0.410848 -0.904947 0.110789
    outer loop
      vertex -19.0579 12.5929 8
      vertex -21.618 12.9197 1.17557
      vertex -19.382 11.9935 1.90211
    endloop
  endfacet
  facet normal -0.410845 -0.904949 0.110788
    outer loop
      vertex -27.1467 15.2858 0
      vertex -21.618 12.9197 1.17557
      vertex -19.0579 12.5929 8
    endloop
  endfacet
  facet normal -0.410843 -0.904951 0.110774
    outer loop
      vertex -21.618 12.9197 1.17557
      vertex -27.1467 15.2858 0
      vertex -21.618 12.7758 0
    endloop
  endfacet
  facet normal -0.410777 -0.904979 0.110789
    outer loop
      vertex -19.0579 12.5929 8
      vertex -19.382 11.9935 1.90211
      vertex -18.1381 11.2193 0.19012
    endloop
  endfacet
  facet normal -0.857826 0.312185 0.408258
    outer loop
      vertex -23.1506 15.8044 8
      vertex -27.1467 15.2858 0
      vertex -23.5733 14.6429 8
    endloop
  endfacet
  facet normal 0.266971 0.957316 0.110786
    outer loop
      vertex -16.7477 14.9446 0
      vertex -26.3011 17.6088 0
      vertex -23.1506 15.8044 8
    endloop
  endfacet
  facet normal 0.266966 0.957317 0.110782
    outer loop
      vertex -16.7477 14.9446 0
      vertex -23.1506 15.8044 8
      vertex -18.3738 14.4723 8
    endloop
  endfacet
  facet normal -0.0323075 -0.985011 -0.169439
    outer loop
      vertex -15.8444 12.4875 -8
      vertex -18.1381 11.2193 -0.19012
      vertex -19.0579 12.5929 -8
    endloop
  endfacet
  facet normal -0.0322923 -0.985012 -0.169434
    outer loop
      vertex -18.1381 11.2193 -0.19012
      vertex -15.8444 12.4875 -8
      vertex -18.0832 11.2045 -0.114543
    endloop
  endfacet
  facet normal -0.410843 -0.904951 -0.110774
    outer loop
      vertex -27.1467 15.2858 0
      vertex -21.618 12.9197 -1.17557
      vertex -21.618 12.7758 0
    endloop
  endfacet
  facet normal -0.410845 -0.904949 -0.110788
    outer loop
      vertex -19.0579 12.5929 -8
      vertex -21.618 12.9197 -1.17557
      vertex -27.1467 15.2858 0
    endloop
  endfacet
  facet normal -0.410848 -0.904947 -0.110789
    outer loop
      vertex -21.618 12.9197 -1.17557
      vertex -19.0579 12.5929 -8
      vertex -19.382 11.9935 -1.90211
    endloop
  endfacet
  facet normal -0.410777 -0.904979 -0.110789
    outer loop
      vertex -18.1381 11.2193 -0.19012
      vertex -19.382 11.9935 -1.90211
      vertex -19.0579 12.5929 -8
    endloop
  endfacet
  facet normal 0.266966 0.957317 -0.110782
    outer loop
      vertex -18.3738 14.4723 -8
      vertex -23.1506 15.8044 -8
      vertex -16.7477 14.9446 0
    endloop
  endfacet
  facet normal 0.608391 0.77534 -0.169437
    outer loop
      vertex -11.6888 10.975 0
      vertex -18.3738 14.4723 -8
      vertex -16.7477 14.9446 0
    endloop
  endfacet
  facet normal 0.608397 0.775333 -0.169446
    outer loop
      vertex -15.8444 12.4875 -8
      vertex -18.3738 14.4723 -8
      vertex -11.6888 10.975 0
    endloop
  endfacet
  facet normal -0.410848 -0.904947 0.110792
    outer loop
      vertex -23.5733 14.6429 8
      vertex -27.1467 15.2858 0
      vertex -19.0579 12.5929 8
    endloop
  endfacet
  facet normal 0 0 1
    outer loop
      vertex -18.3738 14.4723 8
      vertex -19.0579 12.5929 8
      vertex -15.8444 12.4875 8
    endloop
  endfacet
  facet normal 0 0 1
    outer loop
      vertex -23.1506 15.8044 8
      vertex -19.0579 12.5929 8
      vertex -18.3738 14.4723 8
    endloop
  endfacet
  facet normal 0 0 1
    outer loop
      vertex -19.0579 12.5929 8
      vertex -23.1506 15.8044 8
      vertex -23.5733 14.6429 8
    endloop
  endfacet
  facet normal -0.032304 -0.984914 -0.170005
    outer loop
      vertex -18.0832 11.2045 -0.114543
      vertex -11.6888 10.975 0
      vertex -18 11.182 0
    endloop
  endfacet
  facet normal -0.0323176 -0.98501 -0.169441
    outer loop
      vertex -11.6888 10.975 0
      vertex -18.0832 11.2045 -0.114543
      vertex -15.8444 12.4875 -8
    endloop
  endfacet
  facet normal -0.032304 -0.984914 0.170005
    outer loop
      vertex -11.6888 10.975 0
      vertex -18.0832 11.2045 0.114543
      vertex -18 11.182 0
    endloop
  endfacet
  facet normal -0.0323176 -0.98501 0.169441
    outer loop
      vertex -18.0832 11.2045 0.114543
      vertex -11.6888 10.975 0
      vertex -15.8444 12.4875 8
    endloop
  endfacet
  facet normal -0.857826 0.312185 -0.408258
    outer loop
      vertex -23.5733 14.6429 -8
      vertex -27.1467 15.2858 0
      vertex -23.1506 15.8044 -8
    endloop
  endfacet
  facet normal -0.857808 0.312253 -0.408244
    outer loop
      vertex -23.1506 15.8044 -8
      vertex -27.1467 15.2858 0
      vertex -26.3011 17.6088 0
    endloop
  endfacet
  facet normal -0.410848 -0.904947 -0.110792
    outer loop
      vertex -19.0579 12.5929 -8
      vertex -27.1467 15.2858 0
      vertex -23.5733 14.6429 -8
    endloop
  endfacet
  facet normal 0 0 -1
    outer loop
      vertex -19.0579 12.5929 -8
      vertex -18.3738 14.4723 -8
      vertex -15.8444 12.4875 -8
    endloop
  endfacet
  facet normal 0 0 -1
    outer loop
      vertex -19.0579 12.5929 -8
      vertex -23.1506 15.8044 -8
      vertex -18.3738 14.4723 -8
    endloop
  endfacet
  facet normal 0 -0 -1
    outer loop
      vertex -23.1506 15.8044 -8
      vertex -19.0579 12.5929 -8
      vertex -23.5733 14.6429 -8
    endloop
  endfacet
  facet normal -0.0765523 -0.990885 -0.110841
    outer loop
      vertex 12.8446 12.7639 0
      vertex 18.382 12.4676 -1.17557
      vertex 18.382 12.3361 0
    endloop
  endfacet
  facet normal -0.0765417 -0.990892 -0.110789
    outer loop
      vertex 16.4223 13.382 -8
      vertex 18.382 12.4676 -1.17557
      vertex 12.8446 12.7639 0
    endloop
  endfacet
  facet normal -0.0765467 -0.990892 -0.110788
    outer loop
      vertex 18.382 12.4676 -1.17557
      vertex 16.4223 13.382 -8
      vertex 20.618 12.3761 -1.90211
    endloop
  endfacet
  facet normal -0.0765028 -0.990888 -0.110857
    outer loop
      vertex 20.618 12.3761 -1.90211
      vertex 22.7331 12 0
      vertex 22 12.0566 0
    endloop
  endfacet
  facet normal -0.076557 -0.990892 -0.110781
    outer loop
      vertex 21.3666 13 -8
      vertex 20.618 12.3761 -1.90211
      vertex 16.4223 13.382 -8
    endloop
  endfacet
  facet normal -0.0765704 -0.990891 -0.110782
    outer loop
      vertex 20.618 12.3761 -1.90211
      vertex 21.3666 13 -8
      vertex 22.7331 12 0
    endloop
  endfacet
  facet normal 0 0 1
    outer loop
      vertex 21.3666 15 8
      vertex 21.3666 13 8
      vertex 24.4223 14 8
    endloop
  endfacet
  facet normal -0 0 1
    outer loop
      vertex 16.4223 14.618 8
      vertex 21.3666 13 8
      vertex 21.3666 15 8
    endloop
  endfacet
  facet normal 0 0 1
    outer loop
      vertex 21.3666 13 8
      vertex 16.4223 14.618 8
      vertex 16.4223 13.382 8
    endloop
  endfacet
  facet normal 0.306524 0.93666 0.169443
    outer loop
      vertex 22.7331 16 0
      vertex 24.4223 14 8
      vertex 28.8446 14 0
    endloop
  endfacet
  facet normal 0.306528 0.936659 0.169441
    outer loop
      vertex 24.4223 14 8
      vertex 22.7331 16 0
      vertex 21.3666 15 8
    endloop
  endfacet
  facet normal -0.912871 0 0.408247
    outer loop
      vertex 12.8446 15.2361 0
      vertex 16.4223 13.382 8
      vertex 16.4223 14.618 8
    endloop
  endfacet
  facet normal -0.912871 0 0.408247
    outer loop
      vertex 16.4223 13.382 8
      vertex 12.8446 15.2361 0
      vertex 12.8446 12.7639 0
    endloop
  endfacet
  facet normal -0.0765569 0.99089 0.110796
    outer loop
      vertex 21.3666 15 8
      vertex 12.8446 15.2361 0
      vertex 16.4223 14.618 8
    endloop
  endfacet
  facet normal -0.076557 -0.990892 0.110781
    outer loop
      vertex 16.4223 13.382 8
      vertex 20.618 12.3761 1.90211
      vertex 21.3666 13 8
    endloop
  endfacet
  facet normal -0.0765467 -0.990892 0.110788
    outer loop
      vertex 16.4223 13.382 8
      vertex 18.382 12.4676 1.17557
      vertex 20.618 12.3761 1.90211
    endloop
  endfacet
  facet normal -0.0765417 -0.990892 0.110789
    outer loop
      vertex 12.8446 12.7639 0
      vertex 18.382 12.4676 1.17557
      vertex 16.4223 13.382 8
    endloop
  endfacet
  facet normal -0.0765523 -0.990885 0.110841
    outer loop
      vertex 18.382 12.4676 1.17557
      vertex 12.8446 12.7639 0
      vertex 18.382 12.3361 0
    endloop
  endfacet
  facet normal -0.0765028 -0.990888 0.110857
    outer loop
      vertex 22.7331 12 0
      vertex 20.618 12.3761 1.90211
      vertex 22 12.0566 0
    endloop
  endfacet
  facet normal -0.0765704 -0.990891 0.110782
    outer loop
      vertex 20.618 12.3761 1.90211
      vertex 22.7331 12 0
      vertex 21.3666 13 8
    endloop
  endfacet
  facet normal 0 0 -1
    outer loop
      vertex 21.3666 13 -8
      vertex 21.3666 15 -8
      vertex 24.4223 14 -8
    endloop
  endfacet
  facet normal 0 0 -1
    outer loop
      vertex 16.4223 13.382 -8
      vertex 21.3666 15 -8
      vertex 21.3666 13 -8
    endloop
  endfacet
  facet normal 0 0 -1
    outer loop
      vertex 21.3666 15 -8
      vertex 16.4223 13.382 -8
      vertex 16.4223 14.618 -8
    endloop
  endfacet
  facet normal -0.0765477 0.990892 0.110786
    outer loop
      vertex 22.7331 16 0
      vertex 12.8446 15.2361 0
      vertex 21.3666 15 8
    endloop
  endfacet
  facet normal 0.306528 -0.936659 -0.169441
    outer loop
      vertex 24.4223 14 -8
      vertex 22.7331 12 0
      vertex 21.3666 13 -8
    endloop
  endfacet
  facet normal 0.306524 -0.93666 -0.169443
    outer loop
      vertex 22.7331 12 0
      vertex 24.4223 14 -8
      vertex 28.8446 14 0
    endloop
  endfacet
  facet normal -0.912871 0 -0.408247
    outer loop
      vertex 16.4223 13.382 -8
      vertex 12.8446 15.2361 0
      vertex 16.4223 14.618 -8
    endloop
  endfacet
  facet normal -0.912871 -0 -0.408247
    outer loop
      vertex 12.8446 15.2361 0
      vertex 16.4223 13.382 -8
      vertex 12.8446 12.7639 0
    endloop
  endfacet
  facet normal -0.0765569 0.99089 -0.110796
    outer loop
      vertex 16.4223 14.618 -8
      vertex 12.8446 15.2361 0
      vertex 21.3666 15 -8
    endloop
  endfacet
  facet normal -0.0765477 0.990892 -0.110786
    outer loop
      vertex 21.3666 15 -8
      vertex 12.8446 15.2361 0
      vertex 22.7331 16 0
    endloop
  endfacet
  facet normal 0.306524 0.93666 -0.169443
    outer loop
      vertex 24.4223 14 -8
      vertex 22.7331 16 0
      vertex 28.8446 14 0
    endloop
  endfacet
  facet normal 0.306528 0.936659 -0.169441
    outer loop
      vertex 22.7331 16 0
      vertex 24.4223 14 -8
      vertex 21.3666 15 -8
    endloop
  endfacet
  facet normal 0.306528 -0.936659 0.169441
    outer loop
      vertex 22.7331 12 0
      vertex 24.4223 14 8
      vertex 21.3666 13 8
    endloop
  endfacet
  facet normal 0.306524 -0.93666 0.169443
    outer loop
      vertex 24.4223 14 8
      vertex 22.7331 12 0
      vertex 28.8446 14 0
    endloop
  endfacet
  facet normal 0.306524 0.93666 0.169443
    outer loop
      vertex 22.7331 -12 0
      vertex 24.4223 -14 8
      vertex 28.8446 -14 0
    endloop
  endfacet
  facet normal 0.306528 0.936659 0.169441
    outer loop
      vertex 24.4223 -14 8
      vertex 22.7331 -12 0
      vertex 21.3666 -13 8
    endloop
  endfacet
  facet normal -0.912871 0 0.408247
    outer loop
      vertex 12.8446 -12.7639 0
      vertex 16.4223 -14.618 8
      vertex 16.4223 -13.382 8
    endloop
  endfacet
  facet normal -0.912871 0 0.408247
    outer loop
      vertex 16.4223 -14.618 8
      vertex 12.8446 -12.7639 0
      vertex 12.8446 -15.2361 0
    endloop
  endfacet
  facet normal -0.076557 0.990892 0.110781
    outer loop
      vertex 21.3666 -13 8
      vertex 20.618 -12.3761 1.90211
      vertex 16.4223 -13.382 8
    endloop
  endfacet
  facet normal -0.0765704 0.990891 0.110782
    outer loop
      vertex 22.7331 -12 0
      vertex 20.618 -12.3761 1.90211
      vertex 21.3666 -13 8
    endloop
  endfacet
  facet normal -0.0765028 0.990888 0.110857
    outer loop
      vertex 20.618 -12.3761 1.90211
      vertex 22.7331 -12 0
      vertex 22 -12.0566 0
    endloop
  endfacet
  facet normal -0.0765467 0.990892 0.110788
    outer loop
      vertex 18.382 -12.4676 1.17557
      vertex 16.4223 -13.382 8
      vertex 20.618 -12.3761 1.90211
    endloop
  endfacet
  facet normal -0.0765523 0.990885 0.110841
    outer loop
      vertex 12.8446 -12.7639 0
      vertex 18.382 -12.4676 1.17557
      vertex 18.382 -12.3361 0
    endloop
  endfacet
  facet normal -0.0765417 0.990892 0.110789
    outer loop
      vertex 18.382 -12.4676 1.17557
      vertex 12.8446 -12.7639 0
      vertex 16.4223 -13.382 8
    endloop
  endfacet
  facet normal 0.306528 -0.936659 0.169441
    outer loop
      vertex 22.7331 -16 0
      vertex 24.4223 -14 8
      vertex 21.3666 -15 8
    endloop
  endfacet
  facet normal 0.306524 -0.93666 0.169443
    outer loop
      vertex 24.4223 -14 8
      vertex 22.7331 -16 0
      vertex 28.8446 -14 0
    endloop
  endfacet
  facet normal 0 0 -1
    outer loop
      vertex 21.3666 -15 -8
      vertex 21.3666 -13 -8
      vertex 24.4223 -14 -8
    endloop
  endfacet
  facet normal 0 0 -1
    outer loop
      vertex 16.4223 -14.618 -8
      vertex 21.3666 -13 -8
      vertex 21.3666 -15 -8
    endloop
  endfacet
  facet normal 0 0 -1
    outer loop
      vertex 21.3666 -13 -8
      vertex 16.4223 -14.618 -8
      vertex 16.4223 -13.382 -8
    endloop
  endfacet
  facet normal -0.0765477 -0.990892 0.110786
    outer loop
      vertex 21.3666 -15 8
      vertex 12.8446 -15.2361 0
      vertex 22.7331 -16 0
    endloop
  endfacet
  facet normal -0.912871 0 -0.408247
    outer loop
      vertex 16.4223 -14.618 -8
      vertex 12.8446 -12.7639 0
      vertex 16.4223 -13.382 -8
    endloop
  endfacet
  facet normal -0.912871 -0 -0.408247
    outer loop
      vertex 12.8446 -12.7639 0
      vertex 16.4223 -14.618 -8
      vertex 12.8446 -15.2361 0
    endloop
  endfacet
  facet normal -0.0765028 0.990888 -0.110857
    outer loop
      vertex 22.7331 -12 0
      vertex 20.618 -12.3761 -1.90211
      vertex 22 -12.0566 0
    endloop
  endfacet
  facet normal -0.0765704 0.990891 -0.110782
    outer loop
      vertex 20.618 -12.3761 -1.90211
      vertex 22.7331 -12 0
      vertex 21.3666 -13 -8
    endloop
  endfacet
  facet normal -0.0765523 0.990885 -0.110841
    outer loop
      vertex 18.382 -12.4676 -1.17557
      vertex 12.8446 -12.7639 0
      vertex 18.382 -12.3361 0
    endloop
  endfacet
  facet normal -0.0765467 0.990892 -0.110788
    outer loop
      vertex 16.4223 -13.382 -8
      vertex 18.382 -12.4676 -1.17557
      vertex 20.618 -12.3761 -1.90211
    endloop
  endfacet
  facet normal -0.076557 0.990892 -0.110781
    outer loop
      vertex 16.4223 -13.382 -8
      vertex 20.618 -12.3761 -1.90211
      vertex 21.3666 -13 -8
    endloop
  endfacet
  facet normal -0.0765417 0.990892 -0.110789
    outer loop
      vertex 18.382 -12.4676 -1.17557
      vertex 16.4223 -13.382 -8
      vertex 12.8446 -12.7639 0
    endloop
  endfacet
  facet normal 0.306524 0.93666 -0.169443
    outer loop
      vertex 24.4223 -14 -8
      vertex 22.7331 -12 0
      vertex 28.8446 -14 0
    endloop
  endfacet
  facet normal 0.306528 0.936659 -0.169441
    outer loop
      vertex 22.7331 -12 0
      vertex 24.4223 -14 -8
      vertex 21.3666 -13 -8
    endloop
  endfacet
  facet normal -0.0765569 -0.99089 0.110796
    outer loop
      vertex 16.4223 -14.618 8
      vertex 12.8446 -15.2361 0
      vertex 21.3666 -15 8
    endloop
  endfacet
  facet normal 0 0 1
    outer loop
      vertex 21.3666 -13 8
      vertex 21.3666 -15 8
      vertex 24.4223 -14 8
    endloop
  endfacet
  facet normal -0 0 1
    outer loop
      vertex 16.4223 -13.382 8
      vertex 21.3666 -15 8
      vertex 21.3666 -13 8
    endloop
  endfacet
  facet normal 0 0 1
    outer loop
      vertex 21.3666 -15 8
      vertex 16.4223 -13.382 8
      vertex 16.4223 -14.618 8
    endloop
  endfacet
  facet normal 0.306528 -0.936659 -0.169441
    outer loop
      vertex 24.4223 -14 -8
      vertex 22.7331 -16 0
      vertex 21.3666 -15 -8
    endloop
  endfacet
  facet normal 0.306524 -0.93666 -0.169443
    outer loop
      vertex 22.7331 -16 0
      vertex 24.4223 -14 -8
      vertex 28.8446 -14 0
    endloop
  endfacet
  facet normal -0.0765477 -0.990892 -0.110786
    outer loop
      vertex 22.7331 -16 0
      vertex 12.8446 -15.2361 0
      vertex 21.3666 -15 -8
    endloop
  endfacet
  facet normal -0.0765569 -0.99089 -0.110796
    outer loop
      vertex 21.3666 -15 -8
      vertex 12.8446 -15.2361 0
      vertex 16.4223 -14.618 -8
    endloop
  endfacet
  facet normal 0.80901 -0 0.587795
    outer loop
      vertex 20.618 -12.3761 1.90211
      vertex 22 -8.0725 0
      vertex 20.618 -6.18053 1.90211
    endloop
  endfacet
  facet normal 0.80901 0 0.587795
    outer loop
      vertex 22 -8.0725 0
      vertex 20.618 -12.3761 1.90211
      vertex 22 -12.0566 0
    endloop
  endfacet
  facet normal 0.80901 0 0.587795
    outer loop
      vertex 20.618 12.3761 1.90211
      vertex 22 8.0725 0
      vertex 22 12.0566 0
    endloop
  endfacet
  facet normal 0.80901 0 0.587795
    outer loop
      vertex 22 8.0725 0
      vertex 20.618 12.3761 1.90211
      vertex 20.618 6.18053 1.90211
    endloop
  endfacet
  facet normal -0.309025 0 0.951054
    outer loop
      vertex 18.382 -7.70721 1.17557
      vertex 20.618 -12.3761 1.90211
      vertex 20.618 -6.18053 1.90211
    endloop
  endfacet
  facet normal -0.309025 0 0.951054
    outer loop
      vertex 20.618 -12.3761 1.90211
      vertex 18.382 -7.70721 1.17557
      vertex 18.382 -12.4676 1.17557
    endloop
  endfacet
  facet normal -0.309025 0 0.951054
    outer loop
      vertex 18.382 7.70721 1.17557
      vertex 20.618 12.3761 1.90211
      vertex 18.382 12.4676 1.17557
    endloop
  endfacet
  facet normal -0.309025 0 0.951054
    outer loop
      vertex 20.618 12.3761 1.90211
      vertex 18.382 7.70721 1.17557
      vertex 20.618 6.18053 1.90211
    endloop
  endfacet
  facet normal -1 0 0
    outer loop
      vertex 18.382 -12.4676 -1.17557
      vertex 18.382 -9.12496 0
      vertex 18.382 -7.70721 -1.17557
    endloop
  endfacet
  facet normal -1 -0 0
    outer loop
      vertex 18.382 -9.12496 0
      vertex 18.382 -12.4676 -1.17557
      vertex 18.382 -12.3361 0
    endloop
  endfacet
  facet normal -1 0 0
    outer loop
      vertex 18.382 -12.4676 1.17557
      vertex 18.382 -9.12496 0
      vertex 18.382 -12.3361 0
    endloop
  endfacet
  facet normal -1 0 0
    outer loop
      vertex 18.382 -9.12496 0
      vertex 18.382 -12.4676 1.17557
      vertex 18.382 -7.70721 1.17557
    endloop
  endfacet
  facet normal -1 0 0
    outer loop
      vertex 18.382 12.4676 -1.17557
      vertex 18.382 9.12496 0
      vertex 18.382 12.3361 0
    endloop
  endfacet
  facet normal -1 0 -0
    outer loop
      vertex 18.382 9.12496 0
      vertex 18.382 12.4676 -1.17557
      vertex 18.382 7.70721 -1.17557
    endloop
  endfacet
  facet normal -1 0 0
    outer loop
      vertex 18.382 9.12496 0
      vertex 18.382 12.4676 1.17557
      vertex 18.382 12.3361 0
    endloop
  endfacet
  facet normal -1 -0 0
    outer loop
      vertex 18.382 12.4676 1.17557
      vertex 18.382 9.12496 0
      vertex 18.382 7.70721 1.17557
    endloop
  endfacet
  facet normal -0.309025 -0 -0.951054
    outer loop
      vertex 18.382 -7.70721 -1.17557
      vertex 20.618 -12.3761 -1.90211
      vertex 18.382 -12.4676 -1.17557
    endloop
  endfacet
  facet normal -0.309025 0 -0.951054
    outer loop
      vertex 20.618 -12.3761 -1.90211
      vertex 18.382 -7.70721 -1.17557
      vertex 20.618 -6.18053 -1.90211
    endloop
  endfacet
  facet normal -0.309025 0 -0.951054
    outer loop
      vertex 18.382 7.70721 -1.17557
      vertex 20.618 12.3761 -1.90211
      vertex 20.618 6.18053 -1.90211
    endloop
  endfacet
  facet normal -0.309025 0 -0.951054
    outer loop
      vertex 20.618 12.3761 -1.90211
      vertex 18.382 7.70721 -1.17557
      vertex 18.382 12.4676 -1.17557
    endloop
  endfacet
  facet normal 0.80901 0 -0.587795
    outer loop
      vertex 20.618 -12.3761 -1.90211
      vertex 22 -8.0725 0
      vertex 22 -12.0566 0
    endloop
  endfacet
  facet normal 0.80901 0 -0.587795
    outer loop
      vertex 22 -8.0725 0
      vertex 20.618 -12.3761 -1.90211
      vertex 20.618 -6.18053 -1.90211
    endloop
  endfacet
  facet normal 0.80901 0 -0.587795
    outer loop
      vertex 22 8.0725 0
      vertex 20.618 12.3761 -1.90211
      vertex 22 12.0566 0
    endloop
  endfacet
  facet normal 0.80901 0 -0.587795
    outer loop
      vertex 20.618 12.3761 -1.90211
      vertex 22 8.0725 0
      vertex 20.618 6.18053 -1.90211
    endloop
  endfacet
  facet normal 0.809085 0 0.587691
    outer loop
      vertex -18.0832 11.2045 0.114543
      vertex -18 7.7082 0
      vertex -18 11.182 0
    endloop
  endfacet
  facet normal 0.809067 -1.24591e-06 0.587716
    outer loop
      vertex -18.1381 11.2193 0.19012
      vertex -18 7.7082 0
      vertex -18.0832 11.2045 0.114543
    endloop
  endfacet
  facet normal 0.809 -8.89175e-06 0.587808
    outer loop
      vertex -19.382 11.9935 1.90211
      vertex -18 7.7082 0
      vertex -18.1381 11.2193 0.19012
    endloop
  endfacet
  facet normal 0.80901 0 0.587795
    outer loop
      vertex -18 7.7082 0
      vertex -19.382 11.9935 1.90211
      vertex -19.382 6.19555 1.90211
    endloop
  endfacet
  facet normal 0.80901 -0 0.587795
    outer loop
      vertex -19.382 -12.5409 1.90211
      vertex -18 -7.7082 0
      vertex -19.382 -6.19555 1.90211
    endloop
  endfacet
  facet normal 0.80901 0 0.587795
    outer loop
      vertex -18 -7.7082 0
      vertex -19.382 -12.5409 1.90211
      vertex -18 -12.7062 0
    endloop
  endfacet
  facet normal -0.309025 0 0.951054
    outer loop
      vertex -21.618 6.58353 1.17557
      vertex -19.382 11.9935 1.90211
      vertex -21.618 12.9197 1.17557
    endloop
  endfacet
  facet normal -0.309025 0 0.951054
    outer loop
      vertex -19.382 11.9935 1.90211
      vertex -21.618 6.58353 1.17557
      vertex -19.382 6.19555 1.90211
    endloop
  endfacet
  facet normal -0.309025 0 0.951054
    outer loop
      vertex -21.618 -11.8332 1.17557
      vertex -19.382 -6.19555 1.90211
      vertex -21.618 -6.58353 1.17557
    endloop
  endfacet
  facet normal -0.309025 0 0.951054
    outer loop
      vertex -19.382 -6.19555 1.90211
      vertex -21.618 -11.8332 1.17557
      vertex -19.382 -12.5409 1.90211
    endloop
  endfacet
  facet normal -1 0 0
    outer loop
      vertex -21.618 -11.8332 -1.17557
      vertex -21.618 -7.45975 0
      vertex -21.618 -6.58353 -1.17557
    endloop
  endfacet
  facet normal -1 -0 0
    outer loop
      vertex -21.618 -7.45975 0
      vertex -21.618 -11.8332 -1.17557
      vertex -21.618 -11.6972 0
    endloop
  endfacet
  facet normal -1 0 0
    outer loop
      vertex -21.618 -11.8332 1.17557
      vertex -21.618 -7.45975 0
      vertex -21.618 -11.6972 0
    endloop
  endfacet
  facet normal -1 0 0
    outer loop
      vertex -21.618 -7.45975 0
      vertex -21.618 -11.8332 1.17557
      vertex -21.618 -6.58353 1.17557
    endloop
  endfacet
  facet normal -1 0 0
    outer loop
      vertex -21.618 12.9197 -1.17557
      vertex -21.618 7.45975 0
      vertex -21.618 12.7758 0
    endloop
  endfacet
  facet normal -1 0 -0
    outer loop
      vertex -21.618 7.45975 0
      vertex -21.618 12.9197 -1.17557
      vertex -21.618 6.58353 -1.17557
    endloop
  endfacet
  facet normal -1 0 0
    outer loop
      vertex -21.618 7.45975 0
      vertex -21.618 12.9197 1.17557
      vertex -21.618 12.7758 0
    endloop
  endfacet
  facet normal -1 -0 0
    outer loop
      vertex -21.618 12.9197 1.17557
      vertex -21.618 7.45975 0
      vertex -21.618 6.58353 1.17557
    endloop
  endfacet
  facet normal -0.309025 0 -0.951054
    outer loop
      vertex -21.618 -11.8332 -1.17557
      vertex -19.382 -6.19555 -1.90211
      vertex -19.382 -12.5409 -1.90211
    endloop
  endfacet
  facet normal -0.309025 0 -0.951054
    outer loop
      vertex -19.382 -6.19555 -1.90211
      vertex -21.618 -11.8332 -1.17557
      vertex -21.618 -6.58353 -1.17557
    endloop
  endfacet
  facet normal -0.309025 0 -0.951054
    outer loop
      vertex -21.618 6.58353 -1.17557
      vertex -19.382 11.9935 -1.90211
      vertex -19.382 6.19555 -1.90211
    endloop
  endfacet
  facet normal -0.309025 0 -0.951054
    outer loop
      vertex -19.382 11.9935 -1.90211
      vertex -21.618 6.58353 -1.17557
      vertex -21.618 12.9197 -1.17557
    endloop
  endfacet
  facet normal 0.809085 0 -0.587691
    outer loop
      vertex -18 7.7082 0
      vertex -18.0832 11.2045 -0.114543
      vertex -18 11.182 0
    endloop
  endfacet
  facet normal 0.809067 -1.24591e-06 -0.587716
    outer loop
      vertex -18 7.7082 0
      vertex -18.1381 11.2193 -0.19012
      vertex -18.0832 11.2045 -0.114543
    endloop
  endfacet
  facet normal 0.809 -8.89175e-06 -0.587808
    outer loop
      vertex -18 7.7082 0
      vertex -19.382 11.9935 -1.90211
      vertex -18.1381 11.2193 -0.19012
    endloop
  endfacet
  facet normal 0.80901 0 -0.587795
    outer loop
      vertex -19.382 11.9935 -1.90211
      vertex -18 7.7082 0
      vertex -19.382 6.19555 -1.90211
    endloop
  endfacet
  facet normal 0.80901 0 -0.587795
    outer loop
      vertex -18 -7.7082 0
      vertex -19.382 -12.5409 -1.90211
      vertex -19.382 -6.19555 -1.90211
    endloop
  endfacet
  facet normal 0.80901 0 -0.587795
    outer loop
      vertex -19.382 -12.5409 -1.90211
      vertex -18 -7.7082 0
      vertex -18 -12.7062 0
    endloop
  endfacet
endsolid OpenSCAD_Model
