solid OpenSCAD_Model
  facet normal -1 0 0
    outer loop
      vertex -12.5 -20 -15
      vertex -12.5 20 15
      vertex -12.5 20 -15
    endloop
  endfacet
  facet normal -1 -0 0
    outer loop
      vertex -12.5 20 15
      vertex -12.5 -20 -15
      vertex -12.5 -20 15
    endloop
  endfacet
  facet normal -0 0 1
    outer loop
      vertex -12.5 20 15
      vertex -12.4984 -20 15
      vertex -12.4984 20 15
    endloop
  endfacet
  facet normal 0 0 1
    outer loop
      vertex -12.4984 -20 15
      vertex -12.5 20 15
      vertex -12.5 -20 15
    endloop
  endfacet
  facet normal 1 -0 0
    outer loop
      vertex 12.5 -13.5 3.5
      vertex 12.5 -6.5 -3.5
      vertex 12.5 -6.5 3.5
    endloop
  endfacet
  facet normal 1 0 0
    outer loop
      vertex 12.5 -6.5 -3.5
      vertex 12.5 -13.5 3.5
      vertex 12.5 -13.5 -3.5
    endloop
  endfacet
  facet normal 1 -0 0
    outer loop
      vertex 12.5 6.5 3.5
      vertex 12.5 13.5 -3.5
      vertex 12.5 13.5 3.5
    endloop
  endfacet
  facet normal 1 0 0
    outer loop
      vertex 12.5 13.5 -3.5
      vertex 12.5 6.5 3.5
      vertex 12.5 6.5 -3.5
    endloop
  endfacet
  facet normal 1 0 0
    outer loop
      vertex 12.5 13.5 3.5
      vertex 12.5 20 15
      vertex 12.5 13.5 10.5
    endloop
  endfacet
  facet normal 1 0 0
    outer loop
      vertex 12.5 20 15
      vertex 12.5 6.5 10.5
      vertex 12.5 13.5 10.5
    endloop
  endfacet
  facet normal 1 0 0
    outer loop
      vertex 12.5 -6.5 3.5
      vertex 12.5 6.5 3.5
      vertex 12.5 6.5 10.5
    endloop
  endfacet
  facet normal 1 0 -0
    outer loop
      vertex 12.5 2.5 -5
      vertex 12.5 6.5 3.5
      vertex 12.5 -6.5 3.5
    endloop
  endfacet
  facet normal 1 0 0
    outer loop
      vertex 12.5 6.5 -3.5
      vertex 12.5 2.5 -5
      vertex 12.5 6.5 -10.5
    endloop
  endfacet
  facet normal 1 0 0
    outer loop
      vertex 12.5 6.5 3.5
      vertex 12.5 2.5 -5
      vertex 12.5 6.5 -3.5
    endloop
  endfacet
  facet normal 1 0 0
    outer loop
      vertex 12.5 2.5 -5
      vertex 12.5 -6.5 3.5
      vertex 12.5 -2.5 -5
    endloop
  endfacet
  facet normal 1 0 0
    outer loop
      vertex 12.5 -6.5 3.5
      vertex 12.5 6.5 10.5
      vertex 12.5 -6.5 10.5
    endloop
  endfacet
  facet normal 1 0 0
    outer loop
      vertex 12.5 20 15
      vertex 12.5 -6.5 10.5
      vertex 12.5 6.5 10.5
    endloop
  endfacet
  facet normal 1 -0 0
    outer loop
      vertex 12.5 -20 15
      vertex 12.5 -6.5 10.5
      vertex 12.5 20 15
    endloop
  endfacet
  facet normal 1 0 0
    outer loop
      vertex 12.5 -20 15
      vertex 12.5 -13.5 3.5
      vertex 12.5 -13.5 10.5
    endloop
  endfacet
  facet normal 1 0 0
    outer loop
      vertex 12.5 -13.5 3.5
      vertex 12.5 -20 15
      vertex 12.5 -13.5 -3.5
    endloop
  endfacet
  facet normal 1 0 0
    outer loop
      vertex 12.5 -20 -15
      vertex 12.5 -13.5 -3.5
      vertex 12.5 -20 15
    endloop
  endfacet
  facet normal 1 0 0
    outer loop
      vertex 12.5 -6.5 10.5
      vertex 12.5 -20 15
      vertex 12.5 -13.5 10.5
    endloop
  endfacet
  facet normal 1 0 0
    outer loop
      vertex 12.5 20 15
      vertex 12.5 13.5 3.5
      vertex 12.5 20 -15
    endloop
  endfacet
  facet normal 1 -0 0
    outer loop
      vertex 12.5 13.5 -3.5
      vertex 12.5 20 -15
      vertex 12.5 13.5 3.5
    endloop
  endfacet
  facet normal 1 -0 0
    outer loop
      vertex 12.5 13.5 -10.5
      vertex 12.5 20 -15
      vertex 12.5 13.5 -3.5
    endloop
  endfacet
  facet normal 1 0 0
    outer loop
      vertex 12.5 2.5 -15
      vertex 12.5 13.5 -10.5
      vertex 12.5 6.5 -10.5
    endloop
  endfacet
  facet normal 1 0 0
    outer loop
      vertex 12.5 13.5 -10.5
      vertex 12.5 2.5 -15
      vertex 12.5 20 -15
    endloop
  endfacet
  facet normal 1 0 0
    outer loop
      vertex 12.5 2.5 -15
      vertex 12.5 6.5 -10.5
      vertex 12.5 2.5 -5
    endloop
  endfacet
  facet normal 1 -0 0
    outer loop
      vertex 12.5 -6.5 -3.5
      vertex 12.5 -2.5 -5
      vertex 12.5 -6.5 3.5
    endloop
  endfacet
  facet normal 1 0 0
    outer loop
      vertex 12.5 -6.5 -10.5
      vertex 12.5 -2.5 -5
      vertex 12.5 -6.5 -3.5
    endloop
  endfacet
  facet normal 1 0 0
    outer loop
      vertex 12.5 -2.5 -5
      vertex 12.5 -6.5 -10.5
      vertex 12.5 -2.5 -15
    endloop
  endfacet
  facet normal 1 -0 0
    outer loop
      vertex 12.5 -13.5 -10.5
      vertex 12.5 -2.5 -15
      vertex 12.5 -6.5 -10.5
    endloop
  endfacet
  facet normal 1 0 0
    outer loop
      vertex 12.5 -13.5 -10.5
      vertex 12.5 -20 -15
      vertex 12.5 -2.5 -15
    endloop
  endfacet
  facet normal 1 0 0
    outer loop
      vertex 12.5 -13.5 -3.5
      vertex 12.5 -20 -15
      vertex 12.5 -13.5 -10.5
    endloop
  endfacet
  facet normal 0 1 0
    outer loop
      vertex 0.498217 20 27.4901
      vertex -0.298981 20 27.4964
      vertex 0.0996685 20 27.4996
    endloop
  endfacet
  facet normal 0 1 0
    outer loop
      vertex 0.498217 20 27.4901
      vertex -0.697326 20 27.4805
      vertex -0.298981 20 27.4964
    endloop
  endfacet
  facet normal 0 1 0
    outer loop
      vertex 0.896258 20 27.4678
      vertex -0.697326 20 27.4805
      vertex 0.498217 20 27.4901
    endloop
  endfacet
  facet normal 0 1 0
    outer loop
      vertex 0.896258 20 27.4678
      vertex -1.09496 20 27.452
      vertex -0.697326 20 27.4805
    endloop
  endfacet
  facet normal 0 1 0
    outer loop
      vertex 1.29339 20 27.4329
      vertex -1.09496 20 27.452
      vertex 0.896258 20 27.4678
    endloop
  endfacet
  facet normal 0 1 0
    outer loop
      vertex 1.29339 20 27.4329
      vertex -1.49148 20 27.4107
      vertex -1.09496 20 27.452
    endloop
  endfacet
  facet normal 0 1 0
    outer loop
      vertex 1.6892 20 27.3853
      vertex -1.49148 20 27.4107
      vertex 1.29339 20 27.4329
    endloop
  endfacet
  facet normal 0 1 0
    outer loop
      vertex 1.6892 20 27.3853
      vertex -1.88649 20 27.3568
      vertex -1.49148 20 27.4107
    endloop
  endfacet
  facet normal 0 1 0
    outer loop
      vertex 2.0833 20 27.3252
      vertex -1.88649 20 27.3568
      vertex 1.6892 20 27.3853
    endloop
  endfacet
  facet normal 0 1 0
    outer loop
      vertex 2.0833 20 27.3252
      vertex -2.27958 20 27.2904
      vertex -1.88649 20 27.3568
    endloop
  endfacet
  facet normal 0 1 0
    outer loop
      vertex 2.47528 20 27.2525
      vertex -2.27958 20 27.2904
      vertex 2.0833 20 27.3252
    endloop
  endfacet
  facet normal 0 1 0
    outer loop
      vertex 2.47528 20 27.2525
      vertex -2.67034 20 27.2114
      vertex -2.27958 20 27.2904
    endloop
  endfacet
  facet normal 0 1 0
    outer loop
      vertex 2.86473 20 27.1673
      vertex -2.67034 20 27.2114
      vertex 2.47528 20 27.2525
    endloop
  endfacet
  facet normal 0 1 0
    outer loop
      vertex 2.86473 20 27.1673
      vertex -3.0584 20 27.1201
      vertex -2.67034 20 27.2114
    endloop
  endfacet
  facet normal 0 1 0
    outer loop
      vertex 3.25128 20 27.0698
      vertex -3.0584 20 27.1201
      vertex 2.86473 20 27.1673
    endloop
  endfacet
  facet normal 0 1 0
    outer loop
      vertex 3.25128 20 27.0698
      vertex -3.44334 20 27.0164
      vertex -3.0584 20 27.1201
    endloop
  endfacet
  facet normal 0 1 0
    outer loop
      vertex 3.63452 20 26.9599
      vertex -3.44334 20 27.0164
      vertex 3.25128 20 27.0698
    endloop
  endfacet
  facet normal 0 1 0
    outer loop
      vertex 3.63452 20 26.9599
      vertex -3.82478 20 26.9005
      vertex -3.44334 20 27.0164
    endloop
  endfacet
  facet normal 0 1 0
    outer loop
      vertex 4.01406 20 26.838
      vertex -3.82478 20 26.9005
      vertex 3.63452 20 26.9599
    endloop
  endfacet
  facet normal 0 1 0
    outer loop
      vertex 4.01406 20 26.838
      vertex -4.20232 20 26.7724
      vertex -3.82478 20 26.9005
    endloop
  endfacet
  facet normal 0 1 0
    outer loop
      vertex 4.38952 20 26.7039
      vertex -4.20232 20 26.7724
      vertex 4.01406 20 26.838
    endloop
  endfacet
  facet normal 0 1 0
    outer loop
      vertex 4.38952 20 26.7039
      vertex -4.5756 20 26.6325
      vertex -4.20232 20 26.7724
    endloop
  endfacet
  facet normal 0 1 0
    outer loop
      vertex 4.76051 20 26.558
      vertex -4.5756 20 26.6325
      vertex 4.38952 20 26.7039
    endloop
  endfacet
  facet normal 0 1 0
    outer loop
      vertex 4.76051 20 26.558
      vertex -4.94422 20 26.4806
      vertex -4.5756 20 26.6325
    endloop
  endfacet
  facet normal 0 1 0
    outer loop
      vertex 5.12666 20 26.4003
      vertex -4.94422 20 26.4806
      vertex 4.76051 20 26.558
    endloop
  endfacet
  facet normal 0 1 0
    outer loop
      vertex 5.12666 20 26.4003
      vertex -5.30781 20 26.3171
      vertex -4.94422 20 26.4806
    endloop
  endfacet
  facet normal 0 1 0
    outer loop
      vertex 5.4876 20 26.231
      vertex -5.30781 20 26.3171
      vertex 5.12666 20 26.4003
    endloop
  endfacet
  facet normal 0 1 0
    outer loop
      vertex 5.4876 20 26.231
      vertex -5.666 20 26.1421
      vertex -5.30781 20 26.3171
    endloop
  endfacet
  facet normal 0 1 0
    outer loop
      vertex 5.84296 20 26.0503
      vertex -5.666 20 26.1421
      vertex 5.4876 20 26.231
    endloop
  endfacet
  facet normal 0 1 0
    outer loop
      vertex 5.84296 20 26.0503
      vertex -6.01843 20 25.9558
      vertex -5.666 20 26.1421
    endloop
  endfacet
  facet normal 0 1 0
    outer loop
      vertex 6.19237 20 25.8584
      vertex -6.01843 20 25.9558
      vertex 5.84296 20 26.0503
    endloop
  endfacet
  facet normal 0 1 0
    outer loop
      vertex 6.19237 20 25.8584
      vertex -6.36473 20 25.7583
      vertex -6.01843 20 25.9558
    endloop
  endfacet
  facet normal 0 1 0
    outer loop
      vertex 6.53548 20 25.6554
      vertex -6.36473 20 25.7583
      vertex 6.19237 20 25.8584
    endloop
  endfacet
  facet normal 0 1 0
    outer loop
      vertex 6.53548 20 25.6554
      vertex -6.70457 20 25.5498
      vertex -6.36473 20 25.7583
    endloop
  endfacet
  facet normal 0 1 0
    outer loop
      vertex 6.87195 20 25.4416
      vertex -6.70457 20 25.5498
      vertex 6.53548 20 25.6554
    endloop
  endfacet
  facet normal 0 1 0
    outer loop
      vertex 6.87195 20 25.4416
      vertex -7.03758 20 25.3307
      vertex -6.70457 20 25.5498
    endloop
  endfacet
  facet normal 0 1 0
    outer loop
      vertex 7.20142 20 25.2171
      vertex -7.03758 20 25.3307
      vertex 6.87195 20 25.4416
    endloop
  endfacet
  facet normal 0 1 0
    outer loop
      vertex 7.20142 20 25.2171
      vertex -7.36343 20 25.101
      vertex -7.03758 20 25.3307
    endloop
  endfacet
  facet normal 0 1 0
    outer loop
      vertex 7.52357 20 24.9823
      vertex -7.36343 20 25.101
      vertex 7.20142 20 25.2171
    endloop
  endfacet
  facet normal 0 1 0
    outer loop
      vertex 7.52357 20 24.9823
      vertex -7.6818 20 24.861
      vertex -7.36343 20 25.101
    endloop
  endfacet
  facet normal 0 1 0
    outer loop
      vertex 7.83807 20 24.7373
      vertex -7.6818 20 24.861
      vertex 7.52357 20 24.9823
    endloop
  endfacet
  facet normal 0 1 0
    outer loop
      vertex 7.83807 20 24.7373
      vertex -7.99235 20 24.6111
      vertex -7.6818 20 24.861
    endloop
  endfacet
  facet normal 0 1 0
    outer loop
      vertex 8.1446 20 24.4824
      vertex -7.99235 20 24.6111
      vertex 7.83807 20 24.7373
    endloop
  endfacet
  facet normal 0 1 0
    outer loop
      vertex 8.1446 20 24.4824
      vertex -8.29477 20 24.3513
      vertex -7.99235 20 24.6111
    endloop
  endfacet
  facet normal 0 1 0
    outer loop
      vertex 8.44284 20 24.2178
      vertex -8.29477 20 24.3513
      vertex 8.1446 20 24.4824
    endloop
  endfacet
  facet normal 0 1 0
    outer loop
      vertex 8.44284 20 24.2178
      vertex -8.58875 20 24.082
      vertex -8.29477 20 24.3513
    endloop
  endfacet
  facet normal 0 1 0
    outer loop
      vertex 8.73249 20 23.9439
      vertex -8.58875 20 24.082
      vertex 8.44284 20 24.2178
    endloop
  endfacet
  facet normal 0 1 0
    outer loop
      vertex 8.73249 20 23.9439
      vertex -8.874 20 23.8035
      vertex -8.58875 20 24.082
    endloop
  endfacet
  facet normal 0 1 0
    outer loop
      vertex 9.01326 20 23.6609
      vertex -8.874 20 23.8035
      vertex 8.73249 20 23.9439
    endloop
  endfacet
  facet normal 0 1 0
    outer loop
      vertex 9.01326 20 23.6609
      vertex -9.15022 20 23.5161
      vertex -8.874 20 23.8035
    endloop
  endfacet
  facet normal 0 1 0
    outer loop
      vertex 9.28486 20 23.3691
      vertex -9.15022 20 23.5161
      vertex 9.01326 20 23.6609
    endloop
  endfacet
  facet normal 0 1 0
    outer loop
      vertex 9.28486 20 23.3691
      vertex -9.41714 20 23.2199
      vertex -9.15022 20 23.5161
    endloop
  endfacet
  facet normal 0 1 0
    outer loop
      vertex 9.54702 20 23.0687
      vertex -9.41714 20 23.2199
      vertex 9.28486 20 23.3691
    endloop
  endfacet
  facet normal 0 1 0
    outer loop
      vertex 9.54702 20 23.0687
      vertex -9.67447 20 22.9155
      vertex -9.41714 20 23.2199
    endloop
  endfacet
  facet normal 0 1 0
    outer loop
      vertex 9.79947 20 22.7602
      vertex -9.67447 20 22.9155
      vertex 9.54702 20 23.0687
    endloop
  endfacet
  facet normal 0 1 0
    outer loop
      vertex 9.79947 20 22.7602
      vertex -9.92197 20 22.6029
      vertex -9.67447 20 22.9155
    endloop
  endfacet
  facet normal 0 1 0
    outer loop
      vertex 10.0419 20 22.4437
      vertex -9.92197 20 22.6029
      vertex 9.79947 20 22.7602
    endloop
  endfacet
  facet normal 0 1 0
    outer loop
      vertex 10.0419 20 22.4437
      vertex -10.1594 20 22.2827
      vertex -9.92197 20 22.6029
    endloop
  endfacet
  facet normal 0 1 0
    outer loop
      vertex 10.2742 20 22.1197
      vertex -10.1594 20 22.2827
      vertex 10.0419 20 22.4437
    endloop
  endfacet
  facet normal 0 1 0
    outer loop
      vertex 10.2742 20 22.1197
      vertex -10.3864 20 21.955
      vertex -10.1594 20 22.2827
    endloop
  endfacet
  facet normal 0 1 0
    outer loop
      vertex 10.496 20 21.7885
      vertex -10.3864 20 21.955
      vertex 10.2742 20 22.1197
    endloop
  endfacet
  facet normal 0 1 0
    outer loop
      vertex 10.496 20 21.7885
      vertex -10.6029 20 21.6202
      vertex -10.3864 20 21.955
    endloop
  endfacet
  facet normal 0 1 0
    outer loop
      vertex 10.7072 20 21.4503
      vertex -10.6029 20 21.6202
      vertex 10.496 20 21.7885
    endloop
  endfacet
  facet normal 0 1 0
    outer loop
      vertex 10.7072 20 21.4503
      vertex -10.8087 20 21.2787
      vertex -10.6029 20 21.6202
    endloop
  endfacet
  facet normal 0 1 0
    outer loop
      vertex 10.9074 20 21.1056
      vertex -10.8087 20 21.2787
      vertex 10.7072 20 21.4503
    endloop
  endfacet
  facet normal 0 1 0
    outer loop
      vertex 10.9074 20 21.1056
      vertex -11.0034 20 20.9309
      vertex -10.8087 20 21.2787
    endloop
  endfacet
  facet normal 0 1 0
    outer loop
      vertex 11.0966 20 20.7547
      vertex -11.0034 20 20.9309
      vertex 10.9074 20 21.1056
    endloop
  endfacet
  facet normal 0 1 0
    outer loop
      vertex 11.0966 20 20.7547
      vertex -11.1869 20 20.577
      vertex -11.0034 20 20.9309
    endloop
  endfacet
  facet normal 0 1 0
    outer loop
      vertex 11.2744 20 20.3979
      vertex -11.1869 20 20.577
      vertex 11.0966 20 20.7547
    endloop
  endfacet
  facet normal 0 1 0
    outer loop
      vertex 11.2744 20 20.3979
      vertex -11.3591 20 20.2174
      vertex -11.1869 20 20.577
    endloop
  endfacet
  facet normal 0 1 0
    outer loop
      vertex 11.4408 20 20.0356
      vertex -11.3591 20 20.2174
      vertex 11.2744 20 20.3979
    endloop
  endfacet
  facet normal 0 1 0
    outer loop
      vertex 11.4408 20 20.0356
      vertex -11.5197 20 19.8525
      vertex -11.3591 20 20.2174
    endloop
  endfacet
  facet normal 0 1 0
    outer loop
      vertex 11.5956 20 19.6682
      vertex -11.5197 20 19.8525
      vertex 11.4408 20 20.0356
    endloop
  endfacet
  facet normal 0 1 0
    outer loop
      vertex 11.5956 20 19.6682
      vertex -11.6686 20 19.4827
      vertex -11.5197 20 19.8525
    endloop
  endfacet
  facet normal 0 1 0
    outer loop
      vertex 11.7386 20 19.2961
      vertex -11.6686 20 19.4827
      vertex 11.5956 20 19.6682
    endloop
  endfacet
  facet normal 0 1 0
    outer loop
      vertex 11.7386 20 19.2961
      vertex -11.8056 20 19.1083
      vertex -11.6686 20 19.4827
    endloop
  endfacet
  facet normal 0 1 0
    outer loop
      vertex 11.8696 20 18.9195
      vertex -11.8056 20 19.1083
      vertex 11.7386 20 19.2961
    endloop
  endfacet
  facet normal 0 1 0
    outer loop
      vertex 11.8696 20 18.9195
      vertex -11.9306 20 18.7298
      vertex -11.8056 20 19.1083
    endloop
  endfacet
  facet normal 0 1 0
    outer loop
      vertex 11.9885 20 18.539
      vertex -11.9306 20 18.7298
      vertex 11.8696 20 18.9195
    endloop
  endfacet
  facet normal 0 1 0
    outer loop
      vertex 11.9885 20 18.539
      vertex -12.0435 20 18.3474
      vertex -11.9306 20 18.7298
    endloop
  endfacet
  facet normal 0 1 0
    outer loop
      vertex 12.0953 20 18.1549
      vertex -12.0435 20 18.3474
      vertex 11.9885 20 18.539
    endloop
  endfacet
  facet normal 0 1 0
    outer loop
      vertex 12.0953 20 18.1549
      vertex -12.1441 20 17.9617
      vertex -12.0435 20 18.3474
    endloop
  endfacet
  facet normal 0 1 0
    outer loop
      vertex 12.1898 20 17.7676
      vertex -12.1441 20 17.9617
      vertex 12.0953 20 18.1549
    endloop
  endfacet
  facet normal 0 1 0
    outer loop
      vertex 12.1898 20 17.7676
      vertex -12.2323 20 17.5729
      vertex -12.1441 20 17.9617
    endloop
  endfacet
  facet normal 0 1 0
    outer loop
      vertex 12.2718 20 17.3775
      vertex -12.2323 20 17.5729
      vertex 12.1898 20 17.7676
    endloop
  endfacet
  facet normal 0 1 0
    outer loop
      vertex 12.2718 20 17.3775
      vertex -12.3082 20 17.1815
      vertex -12.2323 20 17.5729
    endloop
  endfacet
  facet normal 0 1 0
    outer loop
      vertex 12.3414 20 16.985
      vertex -12.3082 20 17.1815
      vertex 12.2718 20 17.3775
    endloop
  endfacet
  facet normal 0 1 0
    outer loop
      vertex 12.3414 20 16.985
      vertex -12.3715 20 16.7879
      vertex -12.3082 20 17.1815
    endloop
  endfacet
  facet normal 0 1 0
    outer loop
      vertex 12.3984 20 16.5904
      vertex -12.3715 20 16.7879
      vertex 12.3414 20 16.985
    endloop
  endfacet
  facet normal 0 1 0
    outer loop
      vertex 12.3984 20 16.5904
      vertex -12.4222 20 16.3925
      vertex -12.3715 20 16.7879
    endloop
  endfacet
  facet normal 0 1 0
    outer loop
      vertex 12.4428 20 16.1942
      vertex -12.4222 20 16.3925
      vertex 12.3984 20 16.5904
    endloop
  endfacet
  facet normal 0 1 0
    outer loop
      vertex 12.4428 20 16.1942
      vertex -12.4603 20 15.9956
      vertex -12.4222 20 16.3925
    endloop
  endfacet
  facet normal 0 1 0
    outer loop
      vertex 12.4746 20 15.7968
      vertex -12.4603 20 15.9956
      vertex 12.4428 20 16.1942
    endloop
  endfacet
  facet normal 0 1 0
    outer loop
      vertex 12.4746 20 15.7968
      vertex -12.4857 20 15.5978
      vertex -12.4603 20 15.9956
    endloop
  endfacet
  facet normal 0 1 0
    outer loop
      vertex 12.4936 20 15.3986
      vertex -12.4857 20 15.5978
      vertex 12.4746 20 15.7968
    endloop
  endfacet
  facet normal 0 1 0
    outer loop
      vertex 12.4936 20 15.3986
      vertex -12.4984 20 15.1993
      vertex -12.4857 20 15.5978
    endloop
  endfacet
  facet normal 0 1 0
    outer loop
      vertex 12.5 20 15
      vertex -12.4984 20 15.1993
      vertex 12.4936 20 15.3986
    endloop
  endfacet
  facet normal 0 1 0
    outer loop
      vertex 12.5 20 15
      vertex -12.4984 20 15
      vertex -12.4984 20 15.1993
    endloop
  endfacet
  facet normal 0 1 -0
    outer loop
      vertex 12.5 20 -15
      vertex -12.4984 20 15
      vertex 12.5 20 15
    endloop
  endfacet
  facet normal 0 1 0
    outer loop
      vertex -12.5 20 -15
      vertex -12.4984 20 15
      vertex 12.5 20 -15
    endloop
  endfacet
  facet normal 0 1 0
    outer loop
      vertex -12.4984 20 15
      vertex -12.5 20 -15
      vertex -12.5 20 15
    endloop
  endfacet
  facet normal 0 0 -1
    outer loop
      vertex -12.5 -20 -15
      vertex 12.5 -2.5 -15
      vertex 12.5 -20 -15
    endloop
  endfacet
  facet normal -0 0 -1
    outer loop
      vertex 12.5 -2.5 -15
      vertex -12.5 -20 -15
      vertex 12.5 2.5 -15
    endloop
  endfacet
  facet normal 0 0 -1
    outer loop
      vertex -12.5 20 -15
      vertex 12.5 2.5 -15
      vertex -12.5 -20 -15
    endloop
  endfacet
  facet normal 0 0 -1
    outer loop
      vertex 12.5 2.5 -15
      vertex -12.5 20 -15
      vertex 12.5 20 -15
    endloop
  endfacet
  facet normal 0 0 -1
    outer loop
      vertex 12.5 -2.5 -15
      vertex 13.499 2.5 -15
      vertex 13.499 -2.5 -15
    endloop
  endfacet
  facet normal -0 0 -1
    outer loop
      vertex 13.499 2.5 -15
      vertex 12.5 -2.5 -15
      vertex 12.5 2.5 -15
    endloop
  endfacet
  facet normal 0 -1 0
    outer loop
      vertex -12.5 -20 -15
      vertex -12.4984 -20 15
      vertex -12.5 -20 15
    endloop
  endfacet
  facet normal 0 -1 -0
    outer loop
      vertex -12.4984 -20 15
      vertex -12.5 -20 -15
      vertex 12.5 -20 15
    endloop
  endfacet
  facet normal 0 -1 -0
    outer loop
      vertex 12.5 -20 15
      vertex -12.5 -20 -15
      vertex 12.5 -20 -15
    endloop
  endfacet
  facet normal 0 -1 0
    outer loop
      vertex -0.298981 -20 27.4964
      vertex 0.498217 -20 27.4901
      vertex 0.0996685 -20 27.4996
    endloop
  endfacet
  facet normal 0 -1 0
    outer loop
      vertex -0.697326 -20 27.4805
      vertex 0.498217 -20 27.4901
      vertex -0.298981 -20 27.4964
    endloop
  endfacet
  facet normal 0 -1 0
    outer loop
      vertex -0.697326 -20 27.4805
      vertex 0.896258 -20 27.4678
      vertex 0.498217 -20 27.4901
    endloop
  endfacet
  facet normal 0 -1 0
    outer loop
      vertex -1.09496 -20 27.452
      vertex 0.896258 -20 27.4678
      vertex -0.697326 -20 27.4805
    endloop
  endfacet
  facet normal 0 -1 0
    outer loop
      vertex -1.09496 -20 27.452
      vertex 1.29339 -20 27.4329
      vertex 0.896258 -20 27.4678
    endloop
  endfacet
  facet normal 0 -1 0
    outer loop
      vertex -1.49148 -20 27.4107
      vertex 1.29339 -20 27.4329
      vertex -1.09496 -20 27.452
    endloop
  endfacet
  facet normal 0 -1 0
    outer loop
      vertex -1.49148 -20 27.4107
      vertex 1.6892 -20 27.3853
      vertex 1.29339 -20 27.4329
    endloop
  endfacet
  facet normal 0 -1 0
    outer loop
      vertex -1.88649 -20 27.3568
      vertex 1.6892 -20 27.3853
      vertex -1.49148 -20 27.4107
    endloop
  endfacet
  facet normal 0 -1 0
    outer loop
      vertex -1.88649 -20 27.3568
      vertex 2.0833 -20 27.3252
      vertex 1.6892 -20 27.3853
    endloop
  endfacet
  facet normal 0 -1 0
    outer loop
      vertex -2.27958 -20 27.2904
      vertex 2.0833 -20 27.3252
      vertex -1.88649 -20 27.3568
    endloop
  endfacet
  facet normal 0 -1 0
    outer loop
      vertex -2.27958 -20 27.2904
      vertex 2.47528 -20 27.2525
      vertex 2.0833 -20 27.3252
    endloop
  endfacet
  facet normal 0 -1 0
    outer loop
      vertex -2.67034 -20 27.2114
      vertex 2.47528 -20 27.2525
      vertex -2.27958 -20 27.2904
    endloop
  endfacet
  facet normal 0 -1 0
    outer loop
      vertex -2.67034 -20 27.2114
      vertex 2.86473 -20 27.1673
      vertex 2.47528 -20 27.2525
    endloop
  endfacet
  facet normal 0 -1 0
    outer loop
      vertex -3.0584 -20 27.1201
      vertex 2.86473 -20 27.1673
      vertex -2.67034 -20 27.2114
    endloop
  endfacet
  facet normal 0 -1 0
    outer loop
      vertex -3.0584 -20 27.1201
      vertex 3.25128 -20 27.0698
      vertex 2.86473 -20 27.1673
    endloop
  endfacet
  facet normal 0 -1 0
    outer loop
      vertex -3.44334 -20 27.0164
      vertex 3.25128 -20 27.0698
      vertex -3.0584 -20 27.1201
    endloop
  endfacet
  facet normal 0 -1 0
    outer loop
      vertex -3.44334 -20 27.0164
      vertex 3.63452 -20 26.9599
      vertex 3.25128 -20 27.0698
    endloop
  endfacet
  facet normal 0 -1 0
    outer loop
      vertex -3.82478 -20 26.9005
      vertex 3.63452 -20 26.9599
      vertex -3.44334 -20 27.0164
    endloop
  endfacet
  facet normal 0 -1 0
    outer loop
      vertex -3.82478 -20 26.9005
      vertex 4.01406 -20 26.838
      vertex 3.63452 -20 26.9599
    endloop
  endfacet
  facet normal 0 -1 0
    outer loop
      vertex -4.20232 -20 26.7724
      vertex 4.01406 -20 26.838
      vertex -3.82478 -20 26.9005
    endloop
  endfacet
  facet normal 0 -1 0
    outer loop
      vertex -4.20232 -20 26.7724
      vertex 4.38952 -20 26.7039
      vertex 4.01406 -20 26.838
    endloop
  endfacet
  facet normal 0 -1 0
    outer loop
      vertex -4.5756 -20 26.6325
      vertex 4.38952 -20 26.7039
      vertex -4.20232 -20 26.7724
    endloop
  endfacet
  facet normal 0 -1 0
    outer loop
      vertex -4.5756 -20 26.6325
      vertex 4.76051 -20 26.558
      vertex 4.38952 -20 26.7039
    endloop
  endfacet
  facet normal 0 -1 0
    outer loop
      vertex -4.94422 -20 26.4806
      vertex 4.76051 -20 26.558
      vertex -4.5756 -20 26.6325
    endloop
  endfacet
  facet normal 0 -1 0
    outer loop
      vertex -4.94422 -20 26.4806
      vertex 5.12666 -20 26.4003
      vertex 4.76051 -20 26.558
    endloop
  endfacet
  facet normal 0 -1 0
    outer loop
      vertex -5.30781 -20 26.3171
      vertex 5.12666 -20 26.4003
      vertex -4.94422 -20 26.4806
    endloop
  endfacet
  facet normal 0 -1 0
    outer loop
      vertex -5.30781 -20 26.3171
      vertex 5.4876 -20 26.231
      vertex 5.12666 -20 26.4003
    endloop
  endfacet
  facet normal 0 -1 0
    outer loop
      vertex -5.666 -20 26.1421
      vertex 5.4876 -20 26.231
      vertex -5.30781 -20 26.3171
    endloop
  endfacet
  facet normal 0 -1 0
    outer loop
      vertex -5.666 -20 26.1421
      vertex 5.84296 -20 26.0503
      vertex 5.4876 -20 26.231
    endloop
  endfacet
  facet normal 0 -1 0
    outer loop
      vertex -6.01843 -20 25.9558
      vertex 5.84296 -20 26.0503
      vertex -5.666 -20 26.1421
    endloop
  endfacet
  facet normal 0 -1 0
    outer loop
      vertex -6.01843 -20 25.9558
      vertex 6.19237 -20 25.8584
      vertex 5.84296 -20 26.0503
    endloop
  endfacet
  facet normal 0 -1 0
    outer loop
      vertex -6.36473 -20 25.7583
      vertex 6.19237 -20 25.8584
      vertex -6.01843 -20 25.9558
    endloop
  endfacet
  facet normal 0 -1 0
    outer loop
      vertex -6.36473 -20 25.7583
      vertex 6.53548 -20 25.6554
      vertex 6.19237 -20 25.8584
    endloop
  endfacet
  facet normal 0 -1 0
    outer loop
      vertex -6.70457 -20 25.5498
      vertex 6.53548 -20 25.6554
      vertex -6.36473 -20 25.7583
    endloop
  endfacet
  facet normal 0 -1 0
    outer loop
      vertex -6.70457 -20 25.5498
      vertex 6.87195 -20 25.4416
      vertex 6.53548 -20 25.6554
    endloop
  endfacet
  facet normal 0 -1 0
    outer loop
      vertex -7.03758 -20 25.3307
      vertex 6.87195 -20 25.4416
      vertex -6.70457 -20 25.5498
    endloop
  endfacet
  facet normal 0 -1 0
    outer loop
      vertex -7.03758 -20 25.3307
      vertex 7.20142 -20 25.2171
      vertex 6.87195 -20 25.4416
    endloop
  endfacet
  facet normal 0 -1 0
    outer loop
      vertex -7.36343 -20 25.101
      vertex 7.20142 -20 25.2171
      vertex -7.03758 -20 25.3307
    endloop
  endfacet
  facet normal 0 -1 0
    outer loop
      vertex -7.36343 -20 25.101
      vertex 7.52357 -20 24.9823
      vertex 7.20142 -20 25.2171
    endloop
  endfacet
  facet normal 0 -1 0
    outer loop
      vertex -7.6818 -20 24.861
      vertex 7.52357 -20 24.9823
      vertex -7.36343 -20 25.101
    endloop
  endfacet
  facet normal 0 -1 0
    outer loop
      vertex -7.6818 -20 24.861
      vertex 7.83807 -20 24.7373
      vertex 7.52357 -20 24.9823
    endloop
  endfacet
  facet normal 0 -1 0
    outer loop
      vertex -7.99235 -20 24.6111
      vertex 7.83807 -20 24.7373
      vertex -7.6818 -20 24.861
    endloop
  endfacet
  facet normal 0 -1 0
    outer loop
      vertex -7.99235 -20 24.6111
      vertex 8.1446 -20 24.4824
      vertex 7.83807 -20 24.7373
    endloop
  endfacet
  facet normal 0 -1 0
    outer loop
      vertex -8.29477 -20 24.3513
      vertex 8.1446 -20 24.4824
      vertex -7.99235 -20 24.6111
    endloop
  endfacet
  facet normal 0 -1 0
    outer loop
      vertex -8.29477 -20 24.3513
      vertex 8.44284 -20 24.2178
      vertex 8.1446 -20 24.4824
    endloop
  endfacet
  facet normal 0 -1 0
    outer loop
      vertex -8.58875 -20 24.082
      vertex 8.44284 -20 24.2178
      vertex -8.29477 -20 24.3513
    endloop
  endfacet
  facet normal 0 -1 0
    outer loop
      vertex -8.58875 -20 24.082
      vertex 8.73249 -20 23.9439
      vertex 8.44284 -20 24.2178
    endloop
  endfacet
  facet normal 0 -1 0
    outer loop
      vertex -8.874 -20 23.8035
      vertex 8.73249 -20 23.9439
      vertex -8.58875 -20 24.082
    endloop
  endfacet
  facet normal 0 -1 0
    outer loop
      vertex -8.874 -20 23.8035
      vertex 9.01326 -20 23.6609
      vertex 8.73249 -20 23.9439
    endloop
  endfacet
  facet normal 0 -1 0
    outer loop
      vertex -9.15022 -20 23.5161
      vertex 9.01326 -20 23.6609
      vertex -8.874 -20 23.8035
    endloop
  endfacet
  facet normal 0 -1 0
    outer loop
      vertex -9.15022 -20 23.5161
      vertex 9.28486 -20 23.3691
      vertex 9.01326 -20 23.6609
    endloop
  endfacet
  facet normal 0 -1 0
    outer loop
      vertex -9.41714 -20 23.2199
      vertex 9.28486 -20 23.3691
      vertex -9.15022 -20 23.5161
    endloop
  endfacet
  facet normal 0 -1 0
    outer loop
      vertex -9.41714 -20 23.2199
      vertex 9.54702 -20 23.0687
      vertex 9.28486 -20 23.3691
    endloop
  endfacet
  facet normal 0 -1 0
    outer loop
      vertex -9.67447 -20 22.9155
      vertex 9.54702 -20 23.0687
      vertex -9.41714 -20 23.2199
    endloop
  endfacet
  facet normal 0 -1 0
    outer loop
      vertex -9.67447 -20 22.9155
      vertex 9.79947 -20 22.7602
      vertex 9.54702 -20 23.0687
    endloop
  endfacet
  facet normal 0 -1 0
    outer loop
      vertex -9.92197 -20 22.6029
      vertex 9.79947 -20 22.7602
      vertex -9.67447 -20 22.9155
    endloop
  endfacet
  facet normal 0 -1 0
    outer loop
      vertex -9.92197 -20 22.6029
      vertex 10.0419 -20 22.4437
      vertex 9.79947 -20 22.7602
    endloop
  endfacet
  facet normal 0 -1 0
    outer loop
      vertex -10.1594 -20 22.2827
      vertex 10.0419 -20 22.4437
      vertex -9.92197 -20 22.6029
    endloop
  endfacet
  facet normal 0 -1 0
    outer loop
      vertex -10.1594 -20 22.2827
      vertex 10.2742 -20 22.1197
      vertex 10.0419 -20 22.4437
    endloop
  endfacet
  facet normal 0 -1 0
    outer loop
      vertex -10.3864 -20 21.955
      vertex 10.2742 -20 22.1197
      vertex -10.1594 -20 22.2827
    endloop
  endfacet
  facet normal 0 -1 0
    outer loop
      vertex -10.3864 -20 21.955
      vertex 10.496 -20 21.7885
      vertex 10.2742 -20 22.1197
    endloop
  endfacet
  facet normal 0 -1 0
    outer loop
      vertex -10.6029 -20 21.6202
      vertex 10.496 -20 21.7885
      vertex -10.3864 -20 21.955
    endloop
  endfacet
  facet normal 0 -1 0
    outer loop
      vertex -10.6029 -20 21.6202
      vertex 10.7072 -20 21.4503
      vertex 10.496 -20 21.7885
    endloop
  endfacet
  facet normal 0 -1 0
    outer loop
      vertex -10.8087 -20 21.2787
      vertex 10.7072 -20 21.4503
      vertex -10.6029 -20 21.6202
    endloop
  endfacet
  facet normal 0 -1 0
    outer loop
      vertex -10.8087 -20 21.2787
      vertex 10.9074 -20 21.1056
      vertex 10.7072 -20 21.4503
    endloop
  endfacet
  facet normal 0 -1 0
    outer loop
      vertex -11.0034 -20 20.9309
      vertex 10.9074 -20 21.1056
      vertex -10.8087 -20 21.2787
    endloop
  endfacet
  facet normal 0 -1 0
    outer loop
      vertex -11.0034 -20 20.9309
      vertex 11.0966 -20 20.7547
      vertex 10.9074 -20 21.1056
    endloop
  endfacet
  facet normal 0 -1 0
    outer loop
      vertex -11.1869 -20 20.577
      vertex 11.0966 -20 20.7547
      vertex -11.0034 -20 20.9309
    endloop
  endfacet
  facet normal 0 -1 0
    outer loop
      vertex -11.1869 -20 20.577
      vertex 11.2744 -20 20.3979
      vertex 11.0966 -20 20.7547
    endloop
  endfacet
  facet normal 0 -1 0
    outer loop
      vertex -11.3591 -20 20.2174
      vertex 11.2744 -20 20.3979
      vertex -11.1869 -20 20.577
    endloop
  endfacet
  facet normal 0 -1 0
    outer loop
      vertex -11.3591 -20 20.2174
      vertex 11.4408 -20 20.0356
      vertex 11.2744 -20 20.3979
    endloop
  endfacet
  facet normal 0 -1 0
    outer loop
      vertex -11.5197 -20 19.8525
      vertex 11.4408 -20 20.0356
      vertex -11.3591 -20 20.2174
    endloop
  endfacet
  facet normal 0 -1 0
    outer loop
      vertex -11.5197 -20 19.8525
      vertex 11.5956 -20 19.6682
      vertex 11.4408 -20 20.0356
    endloop
  endfacet
  facet normal 0 -1 0
    outer loop
      vertex -11.6686 -20 19.4827
      vertex 11.5956 -20 19.6682
      vertex -11.5197 -20 19.8525
    endloop
  endfacet
  facet normal 0 -1 0
    outer loop
      vertex -11.6686 -20 19.4827
      vertex 11.7386 -20 19.2961
      vertex 11.5956 -20 19.6682
    endloop
  endfacet
  facet normal 0 -1 0
    outer loop
      vertex -11.8056 -20 19.1083
      vertex 11.7386 -20 19.2961
      vertex -11.6686 -20 19.4827
    endloop
  endfacet
  facet normal 0 -1 0
    outer loop
      vertex -11.8056 -20 19.1083
      vertex 11.8696 -20 18.9195
      vertex 11.7386 -20 19.2961
    endloop
  endfacet
  facet normal 0 -1 0
    outer loop
      vertex -11.9306 -20 18.7298
      vertex 11.8696 -20 18.9195
      vertex -11.8056 -20 19.1083
    endloop
  endfacet
  facet normal 0 -1 0
    outer loop
      vertex -11.9306 -20 18.7298
      vertex 11.9885 -20 18.539
      vertex 11.8696 -20 18.9195
    endloop
  endfacet
  facet normal 0 -1 0
    outer loop
      vertex -12.0435 -20 18.3474
      vertex 11.9885 -20 18.539
      vertex -11.9306 -20 18.7298
    endloop
  endfacet
  facet normal 0 -1 0
    outer loop
      vertex -12.0435 -20 18.3474
      vertex 12.0953 -20 18.1549
      vertex 11.9885 -20 18.539
    endloop
  endfacet
  facet normal 0 -1 0
    outer loop
      vertex -12.1441 -20 17.9617
      vertex 12.0953 -20 18.1549
      vertex -12.0435 -20 18.3474
    endloop
  endfacet
  facet normal 0 -1 0
    outer loop
      vertex -12.1441 -20 17.9617
      vertex 12.1898 -20 17.7676
      vertex 12.0953 -20 18.1549
    endloop
  endfacet
  facet normal 0 -1 0
    outer loop
      vertex -12.2323 -20 17.5729
      vertex 12.1898 -20 17.7676
      vertex -12.1441 -20 17.9617
    endloop
  endfacet
  facet normal 0 -1 0
    outer loop
      vertex -12.2323 -20 17.5729
      vertex 12.2718 -20 17.3775
      vertex 12.1898 -20 17.7676
    endloop
  endfacet
  facet normal 0 -1 0
    outer loop
      vertex -12.3082 -20 17.1815
      vertex 12.2718 -20 17.3775
      vertex -12.2323 -20 17.5729
    endloop
  endfacet
  facet normal 0 -1 0
    outer loop
      vertex -12.3082 -20 17.1815
      vertex 12.3414 -20 16.985
      vertex 12.2718 -20 17.3775
    endloop
  endfacet
  facet normal 0 -1 0
    outer loop
      vertex -12.3715 -20 16.7879
      vertex 12.3414 -20 16.985
      vertex -12.3082 -20 17.1815
    endloop
  endfacet
  facet normal 0 -1 0
    outer loop
      vertex -12.3715 -20 16.7879
      vertex 12.3984 -20 16.5904
      vertex 12.3414 -20 16.985
    endloop
  endfacet
  facet normal 0 -1 0
    outer loop
      vertex -12.4222 -20 16.3925
      vertex 12.3984 -20 16.5904
      vertex -12.3715 -20 16.7879
    endloop
  endfacet
  facet normal 0 -1 0
    outer loop
      vertex -12.4222 -20 16.3925
      vertex 12.4428 -20 16.1942
      vertex 12.3984 -20 16.5904
    endloop
  endfacet
  facet normal 0 -1 0
    outer loop
      vertex -12.4603 -20 15.9956
      vertex 12.4428 -20 16.1942
      vertex -12.4222 -20 16.3925
    endloop
  endfacet
  facet normal 0 -1 0
    outer loop
      vertex -12.4603 -20 15.9956
      vertex 12.4746 -20 15.7968
      vertex 12.4428 -20 16.1942
    endloop
  endfacet
  facet normal 0 -1 0
    outer loop
      vertex -12.4857 -20 15.5978
      vertex 12.4746 -20 15.7968
      vertex -12.4603 -20 15.9956
    endloop
  endfacet
  facet normal 0 -1 0
    outer loop
      vertex -12.4857 -20 15.5978
      vertex 12.4936 -20 15.3986
      vertex 12.4746 -20 15.7968
    endloop
  endfacet
  facet normal 0 -1 0
    outer loop
      vertex -12.4984 -20 15.1993
      vertex 12.4936 -20 15.3986
      vertex -12.4857 -20 15.5978
    endloop
  endfacet
  facet normal 0 -1 0
    outer loop
      vertex -12.4984 -20 15
      vertex 12.4936 -20 15.3986
      vertex -12.4984 -20 15.1993
    endloop
  endfacet
  facet normal 0 -1 -0
    outer loop
      vertex 12.4936 -20 15.3986
      vertex -12.4984 -20 15
      vertex 12.5 -20 15
    endloop
  endfacet
  facet normal 0.999871 -0 0.0160541
    outer loop
      vertex 12.4936 -20 15.3986
      vertex 12.5 20 15
      vertex 12.4936 20 15.3986
    endloop
  endfacet
  facet normal 0.999871 0 0.0160541
    outer loop
      vertex 12.5 20 15
      vertex 12.4936 -20 15.3986
      vertex 12.5 -20 15
    endloop
  endfacet
  facet normal 0.978614 -0 0.205707
    outer loop
      vertex 12.1898 -20 17.7676
      vertex 12.2718 20 17.3775
      vertex 12.1898 20 17.7676
    endloop
  endfacet
  facet normal 0.978614 0 0.205707
    outer loop
      vertex 12.2718 20 17.3775
      vertex 12.1898 -20 17.7676
      vertex 12.2718 -20 17.3775
    endloop
  endfacet
  facet normal 0.971499 -0 0.237043
    outer loop
      vertex 12.0953 -20 18.1549
      vertex 12.1898 20 17.7676
      vertex 12.0953 20 18.1549
    endloop
  endfacet
  facet normal 0.971499 0 0.237043
    outer loop
      vertex 12.1898 20 17.7676
      vertex 12.0953 -20 18.1549
      vertex 12.1898 -20 17.7676
    endloop
  endfacet
  facet normal 0.864733 -0 0.502232
    outer loop
      vertex 10.7072 -20 21.4503
      vertex 10.9074 20 21.1056
      vertex 10.7072 20 21.4503
    endloop
  endfacet
  facet normal 0.864733 0 0.502232
    outer loop
      vertex 10.9074 20 21.1056
      vertex 10.7072 -20 21.4503
      vertex 10.9074 -20 21.1056
    endloop
  endfacet
  facet normal 0.753434 -0 0.657524
    outer loop
      vertex 9.28486 -20 23.3691
      vertex 9.54702 20 23.0687
      vertex 9.28486 20 23.3691
    endloop
  endfacet
  facet normal 0.753434 0 0.657524
    outer loop
      vertex 9.54702 20 23.0687
      vertex 9.28486 -20 23.3691
      vertex 9.54702 -20 23.0687
    endloop
  endfacet
  facet normal 0.244571 0 0.969631
    outer loop
      vertex 2.86473 20 27.1673
      vertex 3.25128 -20 27.0698
      vertex 3.25128 20 27.0698
    endloop
  endfacet
  facet normal 0.244571 0 0.969631
    outer loop
      vertex 3.25128 -20 27.0698
      vertex 2.86473 20 27.1673
      vertex 2.86473 -20 27.1673
    endloop
  endfacet
  facet normal 0.0875427 0 0.996161
    outer loop
      vertex 0.896258 20 27.4678
      vertex 1.29339 -20 27.4329
      vertex 1.29339 20 27.4329
    endloop
  endfacet
  facet normal 0.0875427 0 0.996161
    outer loop
      vertex 1.29339 -20 27.4329
      vertex 0.896258 20 27.4678
      vertex 0.896258 -20 27.4678
    endloop
  endfacet
  facet normal 0.614548 0 0.788879
    outer loop
      vertex 7.52357 20 24.9823
      vertex 7.83807 -20 24.7373
      vertex 7.83807 20 24.7373
    endloop
  endfacet
  facet normal 0.614548 0 0.788879
    outer loop
      vertex 7.83807 -20 24.7373
      vertex 7.52357 20 24.9823
      vertex 7.52357 -20 24.9823
    endloop
  endfacet
  facet normal 0.453264 0 0.891377
    outer loop
      vertex 5.4876 20 26.231
      vertex 5.84296 -20 26.0503
      vertex 5.84296 20 26.0503
    endloop
  endfacet
  facet normal 0.453264 0 0.891377
    outer loop
      vertex 5.84296 -20 26.0503
      vertex 5.4876 20 26.231
      vertex 5.4876 -20 26.231
    endloop
  endfacet
  facet normal -0.967628 0 0.252381
    outer loop
      vertex -12.1441 -20 17.9617
      vertex -12.0435 20 18.3474
      vertex -12.1441 20 17.9617
    endloop
  endfacet
  facet normal -0.967628 0 0.252381
    outer loop
      vertex -12.0435 20 18.3474
      vertex -12.1441 -20 17.9617
      vertex -12.0435 -20 18.3474
    endloop
  endfacet
  facet normal -0.839725 0 0.543012
    outer loop
      vertex -10.6029 -20 21.6202
      vertex -10.3864 20 21.955
      vertex -10.6029 20 21.6202
    endloop
  endfacet
  facet normal -0.839725 0 0.543012
    outer loop
      vertex -10.3864 20 21.955
      vertex -10.6029 -20 21.6202
      vertex -10.3864 -20 21.955
    endloop
  endfacet
  facet normal -0.549642 0 0.8354
    outer loop
      vertex -7.03758 20 25.3307
      vertex -6.70457 -20 25.5498
      vertex -6.70457 20 25.5498
    endloop
  endfacet
  facet normal -0.549642 0 0.8354
    outer loop
      vertex -6.70457 -20 25.5498
      vertex -7.03758 20 25.3307
      vertex -7.03758 -20 25.3307
    endloop
  endfacet
  facet normal -0.103596 0 0.994619
    outer loop
      vertex -1.49148 20 27.4107
      vertex -1.09496 -20 27.452
      vertex -1.09496 20 27.452
    endloop
  endfacet
  facet normal -0.103596 0 0.994619
    outer loop
      vertex -1.09496 -20 27.452
      vertex -1.49148 20 27.4107
      vertex -1.49148 -20 27.4107
    endloop
  endfacet
  facet normal -0.290724 0 0.956807
    outer loop
      vertex -3.82478 20 26.9005
      vertex -3.44334 -20 27.0164
      vertex -3.44334 20 27.0164
    endloop
  endfacet
  facet normal -0.290724 0 0.956807
    outer loop
      vertex -3.44334 -20 27.0164
      vertex -3.82478 20 26.9005
      vertex -3.82478 -20 26.9005
    endloop
  endfacet
  facet normal 0.94449 -0 0.32854
    outer loop
      vertex 11.7386 -20 19.2961
      vertex 11.8696 20 18.9195
      vertex 11.7386 20 19.2961
    endloop
  endfacet
  facet normal 0.94449 0 0.32854
    outer loop
      vertex 11.8696 20 18.9195
      vertex 11.7386 -20 19.2961
      vertex 11.8696 -20 18.9195
    endloop
  endfacet
  facet normal 0.908736 -0 0.417371
    outer loop
      vertex 11.2744 -20 20.3979
      vertex 11.4408 20 20.0356
      vertex 11.2744 20 20.3979
    endloop
  endfacet
  facet normal 0.908736 0 0.417371
    outer loop
      vertex 11.4408 20 20.0356
      vertex 11.2744 -20 20.3979
      vertex 11.4408 -20 20.0356
    endloop
  endfacet
  facet normal 0.687076 0 0.726585
    outer loop
      vertex 8.44284 20 24.2178
      vertex 8.73249 -20 23.9439
      vertex 8.73249 20 23.9439
    endloop
  endfacet
  facet normal 0.687076 0 0.726585
    outer loop
      vertex 8.73249 -20 23.9439
      vertex 8.44284 20 24.2178
      vertex 8.44284 -20 24.2178
    endloop
  endfacet
  facet normal 0.793873 -0 0.608084
    outer loop
      vertex 9.79947 -20 22.7602
      vertex 10.0419 20 22.4437
      vertex 9.79947 20 22.7602
    endloop
  endfacet
  facet normal 0.793873 0 0.608084
    outer loop
      vertex 10.0419 20 22.4437
      vertex 9.79947 -20 22.7602
      vertex 10.0419 -20 22.4437
    endloop
  endfacet
  facet normal -0.00802684 0 0.999968
    outer loop
      vertex -0.298981 20 27.4964
      vertex 0.0996685 -20 27.4996
      vertex 0.0996685 20 27.4996
    endloop
  endfacet
  facet normal -0.00802684 0 0.999968
    outer loop
      vertex 0.0996685 -20 27.4996
      vertex -0.298981 20 27.4964
      vertex -0.298981 -20 27.4964
    endloop
  endfacet
  facet normal 0.150756 0 0.988571
    outer loop
      vertex 1.6892 20 27.3853
      vertex 2.0833 -20 27.3252
      vertex 2.0833 20 27.3252
    endloop
  endfacet
  facet normal 0.150756 0 0.988571
    outer loop
      vertex 2.0833 -20 27.3252
      vertex 1.6892 20 27.3853
      vertex 1.6892 -20 27.3853
    endloop
  endfacet
  facet normal 0.275655 0 0.961257
    outer loop
      vertex 3.25128 20 27.0698
      vertex 3.63452 -20 26.9599
      vertex 3.63452 20 26.9599
    endloop
  endfacet
  facet normal 0.275655 0 0.961257
    outer loop
      vertex 3.63452 -20 26.9599
      vertex 3.25128 20 27.0698
      vertex 3.25128 -20 27.0698
    endloop
  endfacet
  facet normal 0.365987 0 0.93062
    outer loop
      vertex 4.38952 20 26.7039
      vertex 4.76051 -20 26.558
      vertex 4.76051 20 26.558
    endloop
  endfacet
  facet normal 0.365987 0 0.93062
    outer loop
      vertex 4.76051 -20 26.558
      vertex 4.38952 20 26.7039
      vertex 4.38952 -20 26.7039
    endloop
  endfacet
  facet normal -1 0 0
    outer loop
      vertex -12.4984 -20 15
      vertex -12.4984 20 15.1993
      vertex -12.4984 20 15
    endloop
  endfacet
  facet normal -1 -0 0
    outer loop
      vertex -12.4984 20 15.1993
      vertex -12.4984 -20 15
      vertex -12.4984 -20 15.1993
    endloop
  endfacet
  facet normal -0.872579 0 0.488473
    outer loop
      vertex -11.0034 -20 20.9309
      vertex -10.8087 20 21.2787
      vertex -11.0034 20 20.9309
    endloop
  endfacet
  facet normal -0.872579 0 0.488473
    outer loop
      vertex -10.8087 20 21.2787
      vertex -11.0034 -20 20.9309
      vertex -10.8087 -20 21.2787
    endloop
  endfacet
  facet normal -0.915274 0 0.402831
    outer loop
      vertex -11.5197 -20 19.8525
      vertex -11.3591 20 20.2174
      vertex -11.5197 20 19.8525
    endloop
  endfacet
  facet normal -0.915274 0 0.402831
    outer loop
      vertex -11.3591 20 20.2174
      vertex -11.5197 -20 19.8525
      vertex -11.3591 -20 20.2174
    endloop
  endfacet
  facet normal -0.987314 0 0.158783
    outer loop
      vertex -12.3715 -20 16.7879
      vertex -12.3082 20 17.1815
      vertex -12.3715 20 16.7879
    endloop
  endfacet
  facet normal -0.987314 0 0.158783
    outer loop
      vertex -12.3082 20 17.1815
      vertex -12.3715 -20 16.7879
      vertex -12.3082 -20 17.1815
    endloop
  endfacet
  facet normal -0.949558 0 0.313592
    outer loop
      vertex -11.9306 -20 18.7298
      vertex -11.8056 20 19.1083
      vertex -11.9306 20 18.7298
    endloop
  endfacet
  facet normal -0.949558 0 0.313592
    outer loop
      vertex -11.8056 20 19.1083
      vertex -11.9306 -20 18.7298
      vertex -11.8056 -20 19.1083
    endloop
  endfacet
  facet normal -0.576161 0 0.817336
    outer loop
      vertex -7.36343 20 25.101
      vertex -7.03758 -20 25.3307
      vertex -7.03758 20 25.3307
    endloop
  endfacet
  facet normal -0.576161 0 0.817336
    outer loop
      vertex -7.03758 -20 25.3307
      vertex -7.36343 20 25.101
      vertex -7.36343 -20 25.101
    endloop
  endfacet
  facet normal -0.467338 0 0.884079
    outer loop
      vertex -6.01843 20 25.9558
      vertex -5.666 -20 26.1421
      vertex -5.666 20 26.1421
    endloop
  endfacet
  facet normal -0.467338 0 0.884079
    outer loop
      vertex -5.666 -20 26.1421
      vertex -6.01843 20 25.9558
      vertex -6.01843 -20 25.9558
    endloop
  endfacet
  facet normal -0.0398834 0 0.999204
    outer loop
      vertex -0.697326 20 27.4805
      vertex -0.298981 -20 27.4964
      vertex -0.298981 20 27.4964
    endloop
  endfacet
  facet normal -0.0398834 0 0.999204
    outer loop
      vertex -0.298981 -20 27.4964
      vertex -0.697326 20 27.4805
      vertex -0.697326 -20 27.4805
    endloop
  endfacet
  facet normal -0.198161 0 0.980169
    outer loop
      vertex -2.67034 20 27.2114
      vertex -2.27958 -20 27.2904
      vertex -2.27958 20 27.2904
    endloop
  endfacet
  facet normal -0.198161 0 0.980169
    outer loop
      vertex -2.27958 -20 27.2904
      vertex -2.67034 20 27.2114
      vertex -2.67034 -20 27.2114
    endloop
  endfacet
  facet normal 0.998864 -0 0.0476605
    outer loop
      vertex 12.4746 -20 15.7968
      vertex 12.4936 20 15.3986
      vertex 12.4746 20 15.7968
    endloop
  endfacet
  facet normal 0.998864 0 0.0476605
    outer loop
      vertex 12.4936 20 15.3986
      vertex 12.4746 -20 15.7968
      vertex 12.4936 -20 15.3986
    endloop
  endfacet
  facet normal 0.993779 -0 0.111367
    outer loop
      vertex 12.3984 -20 16.5904
      vertex 12.4428 20 16.1942
      vertex 12.3984 20 16.5904
    endloop
  endfacet
  facet normal 0.993779 0 0.111367
    outer loop
      vertex 12.4428 20 16.1942
      vertex 12.3984 -20 16.5904
      vertex 12.4428 -20 16.1942
    endloop
  endfacet
  facet normal 0.96345 -0 0.26789
    outer loop
      vertex 11.9885 -20 18.539
      vertex 12.0953 20 18.1549
      vertex 11.9885 20 18.539
    endloop
  endfacet
  facet normal 0.96345 0 0.26789
    outer loop
      vertex 12.0953 20 18.1549
      vertex 11.9885 -20 18.539
      vertex 12.0953 -20 18.1549
    endloop
  endfacet
  facet normal 0.933443 -0 0.358727
    outer loop
      vertex 11.5956 -20 19.6682
      vertex 11.7386 20 19.2961
      vertex 11.5956 20 19.6682
    endloop
  endfacet
  facet normal 0.933443 0 0.358727
    outer loop
      vertex 11.7386 20 19.2961
      vertex 11.5956 -20 19.6682
      vertex 11.7386 -20 19.2961
    endloop
  endfacet
  facet normal 0.731989 -0 0.681317
    outer loop
      vertex 9.01326 -20 23.6609
      vertex 9.28486 20 23.3691
      vertex 9.01326 20 23.6609
    endloop
  endfacet
  facet normal 0.731989 0 0.681317
    outer loop
      vertex 9.28486 20 23.3691
      vertex 9.01326 -20 23.6609
      vertex 9.28486 -20 23.3691
    endloop
  endfacet
  facet normal 0.830891 -0 0.556436
    outer loop
      vertex 10.2742 -20 22.1197
      vertex 10.496 20 21.7885
      vertex 10.2742 20 22.1197
    endloop
  endfacet
  facet normal 0.830891 0 0.556436
    outer loop
      vertex 10.496 20 21.7885
      vertex 10.2742 -20 22.1197
      vertex 10.496 -20 21.7885
    endloop
  endfacet
  facet normal 0.812698 -0 0.582685
    outer loop
      vertex 10.0419 -20 22.4437
      vertex 10.2742 20 22.1197
      vertex 10.0419 20 22.4437
    endloop
  endfacet
  facet normal 0.812698 0 0.582685
    outer loop
      vertex 10.2742 20 22.1197
      vertex 10.0419 -20 22.4437
      vertex 10.2742 -20 22.1197
    endloop
  endfacet
  facet normal 0.848196 -0 0.529683
    outer loop
      vertex 10.496 -20 21.7885
      vertex 10.7072 20 21.4503
      vertex 10.496 20 21.7885
    endloop
  endfacet
  facet normal 0.848196 0 0.529683
    outer loop
      vertex 10.7072 20 21.4503
      vertex 10.496 -20 21.7885
      vertex 10.7072 -20 21.4503
    endloop
  endfacet
  facet normal 0.0559367 0 0.998434
    outer loop
      vertex 0.498217 20 27.4901
      vertex 0.896258 -20 27.4678
      vertex 0.896258 20 27.4678
    endloop
  endfacet
  facet normal 0.0559367 0 0.998434
    outer loop
      vertex 0.896258 -20 27.4678
      vertex 0.498217 20 27.4901
      vertex 0.498217 -20 27.4901
    endloop
  endfacet
  facet normal 0.0238297 0 0.999716
    outer loop
      vertex 0.0996685 20 27.4996
      vertex 0.498217 -20 27.4901
      vertex 0.498217 20 27.4901
    endloop
  endfacet
  facet normal 0.0238297 0 0.999716
    outer loop
      vertex 0.498217 -20 27.4901
      vertex 0.0996685 20 27.4996
      vertex 0.0996685 -20 27.4996
    endloop
  endfacet
  facet normal 0.336352 0 0.941736
    outer loop
      vertex 4.01406 20 26.838
      vertex 4.38952 -20 26.7039
      vertex 4.38952 20 26.7039
    endloop
  endfacet
  facet normal 0.336352 0 0.941736
    outer loop
      vertex 4.38952 -20 26.7039
      vertex 4.01406 20 26.838
      vertex 4.01406 -20 26.838
    endloop
  endfacet
  facet normal 0.424659 0 0.905353
    outer loop
      vertex 5.12666 20 26.4003
      vertex 5.4876 -20 26.231
      vertex 5.4876 20 26.231
    endloop
  endfacet
  facet normal 0.424659 0 0.905353
    outer loop
      vertex 5.4876 -20 26.231
      vertex 5.12666 20 26.4003
      vertex 5.12666 -20 26.4003
    endloop
  endfacet
  facet normal 0.395569 0 0.918436
    outer loop
      vertex 4.76051 20 26.558
      vertex 5.12666 -20 26.4003
      vertex 5.12666 20 26.4003
    endloop
  endfacet
  facet normal 0.395569 0 0.918436
    outer loop
      vertex 5.12666 -20 26.4003
      vertex 4.76051 20 26.558
      vertex 4.76051 -20 26.558
    endloop
  endfacet
  facet normal 0.481388 0 0.876508
    outer loop
      vertex 5.84296 20 26.0503
      vertex 6.19237 -20 25.8584
      vertex 6.19237 20 25.8584
    endloop
  endfacet
  facet normal 0.481388 0 0.876508
    outer loop
      vertex 6.19237 -20 25.8584
      vertex 5.84296 20 26.0503
      vertex 5.84296 -20 26.0503
    endloop
  endfacet
  facet normal 0.5092 0 0.860648
    outer loop
      vertex 6.19237 20 25.8584
      vertex 6.53548 -20 25.6554
      vertex 6.53548 20 25.6554
    endloop
  endfacet
  facet normal 0.5092 0 0.860648
    outer loop
      vertex 6.53548 -20 25.6554
      vertex 6.19237 20 25.8584
      vertex 6.19237 -20 25.8584
    endloop
  endfacet
  facet normal 0.639382 0 0.768889
    outer loop
      vertex 7.83807 20 24.7373
      vertex 8.1446 -20 24.4824
      vertex 8.1446 20 24.4824
    endloop
  endfacet
  facet normal 0.639382 0 0.768889
    outer loop
      vertex 8.1446 -20 24.4824
      vertex 7.83807 20 24.7373
      vertex 7.83807 -20 24.7373
    endloop
  endfacet
  facet normal 0.589007 0 0.808128
    outer loop
      vertex 7.20142 20 25.2171
      vertex 7.52357 -20 24.9823
      vertex 7.52357 20 24.9823
    endloop
  endfacet
  facet normal 0.589007 0 0.808128
    outer loop
      vertex 7.52357 -20 24.9823
      vertex 7.20142 20 25.2171
      vertex 7.20142 -20 25.2171
    endloop
  endfacet
  facet normal 0.536309 0 0.844022
    outer loop
      vertex 6.53548 20 25.6554
      vertex 6.87195 -20 25.4416
      vertex 6.87195 20 25.4416
    endloop
  endfacet
  facet normal 0.536309 0 0.844022
    outer loop
      vertex 6.87195 -20 25.4416
      vertex 6.53548 20 25.6554
      vertex 6.53548 -20 25.6554
    endloop
  endfacet
  facet normal -0.784015 0 0.620741
    outer loop
      vertex -9.92197 -20 22.6029
      vertex -9.67447 20 22.9155
      vertex -9.92197 20 22.6029
    endloop
  endfacet
  facet normal -0.784015 0 0.620741
    outer loop
      vertex -9.67447 20 22.9155
      vertex -9.92197 -20 22.6029
      vertex -9.67447 -20 22.9155
    endloop
  endfacet
  facet normal -0.822039 0 0.569432
    outer loop
      vertex -10.3864 -20 21.955
      vertex -10.1594 20 22.2827
      vertex -10.3864 20 21.955
    endloop
  endfacet
  facet normal -0.822039 0 0.569432
    outer loop
      vertex -10.1594 20 22.2827
      vertex -10.3864 -20 21.955
      vertex -10.1594 -20 22.2827
    endloop
  endfacet
  facet normal -0.74287 0 0.669436
    outer loop
      vertex -9.41714 -20 23.2199
      vertex -9.15022 20 23.5161
      vertex -9.41714 20 23.2199
    endloop
  endfacet
  facet normal -0.74287 0 0.669436
    outer loop
      vertex -9.15022 20 23.5161
      vertex -9.41714 -20 23.2199
      vertex -9.15022 -20 23.5161
    endloop
  endfacet
  facet normal -0.887758 0 0.46031
    outer loop
      vertex -11.1869 -20 20.577
      vertex -11.0034 20 20.9309
      vertex -11.1869 20 20.577
    endloop
  endfacet
  facet normal -0.887758 0 0.46031
    outer loop
      vertex -11.0034 20 20.9309
      vertex -11.1869 -20 20.577
      vertex -11.0034 -20 20.9309
    endloop
  endfacet
  facet normal -0.901922 0 0.431899
    outer loop
      vertex -11.3591 -20 20.2174
      vertex -11.1869 20 20.577
      vertex -11.3591 20 20.2174
    endloop
  endfacet
  facet normal -0.901922 0 0.431899
    outer loop
      vertex -11.1869 20 20.577
      vertex -11.3591 -20 20.2174
      vertex -11.1869 -20 20.577
    endloop
  endfacet
  facet normal -0.997968 0 0.0637214
    outer loop
      vertex -12.4857 -20 15.5978
      vertex -12.4603 20 15.9956
      vertex -12.4857 20 15.5978
    endloop
  endfacet
  facet normal -0.997968 0 0.0637214
    outer loop
      vertex -12.4603 20 15.9956
      vertex -12.4857 -20 15.5978
      vertex -12.4603 -20 15.9956
    endloop
  endfacet
  facet normal -0.999493 0 0.0318533
    outer loop
      vertex -12.4984 -20 15.1993
      vertex -12.4857 20 15.5978
      vertex -12.4984 20 15.1993
    endloop
  endfacet
  facet normal -0.999493 0 0.0318533
    outer loop
      vertex -12.4857 20 15.5978
      vertex -12.4984 -20 15.1993
      vertex -12.4857 -20 15.5978
    endloop
  endfacet
  facet normal -0.939103 0 0.343635
    outer loop
      vertex -11.8056 -20 19.1083
      vertex -11.6686 20 19.4827
      vertex -11.8056 20 19.1083
    endloop
  endfacet
  facet normal -0.939103 0 0.343635
    outer loop
      vertex -11.6686 20 19.4827
      vertex -11.8056 -20 19.1083
      vertex -11.6686 -20 19.4827
    endloop
  endfacet
  facet normal -0.959073 0 0.283157
    outer loop
      vertex -12.0435 -20 18.3474
      vertex -11.9306 20 18.7298
      vertex -12.0435 20 18.3474
    endloop
  endfacet
  facet normal -0.959073 0 0.283157
    outer loop
      vertex -11.9306 20 18.7298
      vertex -12.0435 -20 18.3474
      vertex -11.9306 -20 18.7298
    endloop
  endfacet
  facet normal -0.651634 0 0.758534
    outer loop
      vertex -8.29477 20 24.3513
      vertex -7.99235 -20 24.6111
      vertex -7.99235 20 24.6111
    endloop
  endfacet
  facet normal -0.651634 0 0.758534
    outer loop
      vertex -7.99235 -20 24.6111
      vertex -8.29477 20 24.3513
      vertex -8.29477 -20 24.3513
    endloop
  endfacet
  facet normal -0.410124 0 0.91203
    outer loop
      vertex -5.30781 20 26.3171
      vertex -4.94422 -20 26.4806
      vertex -4.94422 20 26.4806
    endloop
  endfacet
  facet normal -0.410124 0 0.91203
    outer loop
      vertex -4.94422 -20 26.4806
      vertex -5.30781 20 26.3171
      vertex -5.30781 -20 26.3171
    endloop
  endfacet
  facet normal -0.522947 0 0.852365
    outer loop
      vertex -6.70457 20 25.5498
      vertex -6.36473 -20 25.7583
      vertex -6.36473 20 25.7583
    endloop
  endfacet
  facet normal -0.522947 0 0.852365
    outer loop
      vertex -6.36473 -20 25.7583
      vertex -6.70457 20 25.5498
      vertex -6.70457 -20 25.5498
    endloop
  endfacet
  facet normal -0.495409 0 0.86866
    outer loop
      vertex -6.36473 20 25.7583
      vertex -6.01843 -20 25.9558
      vertex -6.01843 20 25.9558
    endloop
  endfacet
  facet normal -0.495409 0 0.86866
    outer loop
      vertex -6.01843 -20 25.9558
      vertex -6.36473 20 25.7583
      vertex -6.36473 -20 25.7583
    endloop
  endfacet
  facet normal -0.32131 0 0.946974
    outer loop
      vertex -4.20232 20 26.7724
      vertex -3.82478 -20 26.9005
      vertex -3.82478 20 26.9005
    endloop
  endfacet
  facet normal -0.32131 0 0.946974
    outer loop
      vertex -3.82478 -20 26.9005
      vertex -4.20232 20 26.7724
      vertex -4.20232 -20 26.7724
    endloop
  endfacet
  facet normal -0.260119 0 0.965577
    outer loop
      vertex -3.44334 20 27.0164
      vertex -3.0584 -20 27.1201
      vertex -3.0584 20 27.1201
    endloop
  endfacet
  facet normal -0.260119 0 0.965577
    outer loop
      vertex -3.0584 -20 27.1201
      vertex -3.44334 20 27.0164
      vertex -3.44334 -20 27.0164
    endloop
  endfacet
  facet normal -0.22902 0 0.973422
    outer loop
      vertex -3.0584 20 27.1201
      vertex -2.67034 -20 27.2114
      vertex -2.67034 20 27.2114
    endloop
  endfacet
  facet normal -0.22902 0 0.973422
    outer loop
      vertex -2.67034 -20 27.2114
      vertex -3.0584 20 27.1201
      vertex -3.0584 -20 27.1201
    endloop
  endfacet
  facet normal -0.166559 0 0.986032
    outer loop
      vertex -2.27958 20 27.2904
      vertex -1.88649 -20 27.3568
      vertex -1.88649 20 27.3568
    endloop
  endfacet
  facet normal -0.166559 0 0.986032
    outer loop
      vertex -1.88649 -20 27.3568
      vertex -2.27958 20 27.2904
      vertex -2.27958 -20 27.2904
    endloop
  endfacet
  facet normal -0.135199 0 0.990818
    outer loop
      vertex -1.88649 20 27.3568
      vertex -1.49148 -20 27.4107
      vertex -1.49148 20 27.4107
    endloop
  endfacet
  facet normal -0.135199 0 0.990818
    outer loop
      vertex -1.49148 -20 27.4107
      vertex -1.88649 20 27.3568
      vertex -1.88649 -20 27.3568
    endloop
  endfacet
  facet normal 0.954484 -0 0.298261
    outer loop
      vertex 11.8696 -20 18.9195
      vertex 11.9885 20 18.539
      vertex 11.8696 20 18.9195
    endloop
  endfacet
  facet normal 0.954484 0 0.298261
    outer loop
      vertex 11.9885 20 18.539
      vertex 11.8696 -20 18.9195
      vertex 11.9885 -20 18.539
    endloop
  endfacet
  facet normal 0.921541 -0 0.388281
    outer loop
      vertex 11.4408 -20 20.0356
      vertex 11.5956 20 19.6682
      vertex 11.4408 20 20.0356
    endloop
  endfacet
  facet normal 0.921541 0 0.388281
    outer loop
      vertex 11.5956 20 19.6682
      vertex 11.4408 -20 20.0356
      vertex 11.5956 -20 19.6682
    endloop
  endfacet
  facet normal 0.709898 -0 0.704304
    outer loop
      vertex 8.73249 -20 23.9439
      vertex 9.01326 20 23.6609
      vertex 8.73249 20 23.9439
    endloop
  endfacet
  facet normal 0.709898 0 0.704304
    outer loop
      vertex 9.01326 20 23.6609
      vertex 8.73249 -20 23.9439
      vertex 9.01326 -20 23.6609
    endloop
  endfacet
  facet normal 0.773907 -0 0.633299
    outer loop
      vertex 9.54702 -20 23.0687
      vertex 9.79947 20 22.7602
      vertex 9.54702 20 23.0687
    endloop
  endfacet
  facet normal 0.773907 0 0.633299
    outer loop
      vertex 9.79947 20 22.7602
      vertex 9.54702 -20 23.0687
      vertex 9.79947 -20 22.7602
    endloop
  endfacet
  facet normal 0.895028 -0 0.446009
    outer loop
      vertex 11.0966 -20 20.7547
      vertex 11.2744 20 20.3979
      vertex 11.0966 20 20.7547
    endloop
  endfacet
  facet normal 0.895028 0 0.446009
    outer loop
      vertex 11.2744 20 20.3979
      vertex 11.0966 -20 20.7547
      vertex 11.2744 -20 20.3979
    endloop
  endfacet
  facet normal 0.880205 -0 0.474593
    outer loop
      vertex 10.9074 -20 21.1056
      vertex 11.0966 20 20.7547
      vertex 10.9074 20 21.1056
    endloop
  endfacet
  facet normal 0.880205 0 0.474593
    outer loop
      vertex 11.0966 20 20.7547
      vertex 10.9074 -20 21.1056
      vertex 11.0966 -20 20.7547
    endloop
  endfacet
  facet normal 0.305793 0 0.952098
    outer loop
      vertex 3.63452 20 26.9599
      vertex 4.01406 -20 26.838
      vertex 4.01406 20 26.838
    endloop
  endfacet
  facet normal 0.305793 0 0.952098
    outer loop
      vertex 4.01406 -20 26.838
      vertex 3.63452 20 26.9599
      vertex 3.63452 -20 26.9599
    endloop
  endfacet
  facet normal 0.213716 0 0.976896
    outer loop
      vertex 2.47528 20 27.2525
      vertex 2.86473 -20 27.1673
      vertex 2.86473 20 27.1673
    endloop
  endfacet
  facet normal 0.213716 0 0.976896
    outer loop
      vertex 2.86473 -20 27.1673
      vertex 2.47528 20 27.2525
      vertex 2.47528 -20 27.2525
    endloop
  endfacet
  facet normal 0.182359 0 0.983232
    outer loop
      vertex 2.0833 20 27.3252
      vertex 2.47528 -20 27.2525
      vertex 2.47528 20 27.2525
    endloop
  endfacet
  facet normal 0.182359 0 0.983232
    outer loop
      vertex 2.47528 -20 27.2525
      vertex 2.0833 20 27.3252
      vertex 2.0833 -20 27.3252
    endloop
  endfacet
  facet normal 0.119399 0 0.992846
    outer loop
      vertex 1.29339 20 27.4329
      vertex 1.6892 -20 27.3853
      vertex 1.6892 20 27.3853
    endloop
  endfacet
  facet normal 0.119399 0 0.992846
    outer loop
      vertex 1.6892 -20 27.3853
      vertex 1.29339 20 27.4329
      vertex 1.29339 -20 27.4329
    endloop
  endfacet
  facet normal 0.66366 0 0.748034
    outer loop
      vertex 8.1446 20 24.4824
      vertex 8.44284 -20 24.2178
      vertex 8.44284 20 24.2178
    endloop
  endfacet
  facet normal 0.66366 0 0.748034
    outer loop
      vertex 8.44284 -20 24.2178
      vertex 8.1446 20 24.4824
      vertex 8.1446 -20 24.4824
    endloop
  endfacet
  facet normal 0.563099 0 0.826389
    outer loop
      vertex 6.87195 20 25.4416
      vertex 7.20142 -20 25.2171
      vertex 7.20142 20 25.2171
    endloop
  endfacet
  facet normal 0.563099 0 0.826389
    outer loop
      vertex 7.20142 -20 25.2171
      vertex 6.87195 20 25.4416
      vertex 6.87195 -20 25.4416
    endloop
  endfacet
  facet normal -0.803263 0 0.595624
    outer loop
      vertex -10.1594 -20 22.2827
      vertex -9.92197 20 22.6029
      vertex -10.1594 20 22.2827
    endloop
  endfacet
  facet normal -0.803263 0 0.595624
    outer loop
      vertex -9.92197 20 22.6029
      vertex -10.1594 -20 22.2827
      vertex -9.92197 -20 22.6029
    endloop
  endfacet
  facet normal -0.763682 0 0.645592
    outer loop
      vertex -9.67447 -20 22.9155
      vertex -9.41714 20 23.2199
      vertex -9.67447 20 22.9155
    endloop
  endfacet
  facet normal -0.763682 0 0.645592
    outer loop
      vertex -9.41714 20 23.2199
      vertex -9.67447 -20 22.9155
      vertex -9.41714 -20 23.2199
    endloop
  endfacet
  facet normal -0.720991 0 0.692944
    outer loop
      vertex -9.15022 -20 23.5161
      vertex -8.874 20 23.8035
      vertex -9.15022 20 23.5161
    endloop
  endfacet
  facet normal -0.720991 0 0.692944
    outer loop
      vertex -8.874 20 23.8035
      vertex -9.15022 -20 23.5161
      vertex -8.874 -20 23.8035
    endloop
  endfacet
  facet normal -0.856495 0 0.516155
    outer loop
      vertex -10.8087 -20 21.2787
      vertex -10.6029 20 21.6202
      vertex -10.8087 20 21.2787
    endloop
  endfacet
  facet normal -0.856495 0 0.516155
    outer loop
      vertex -10.6029 20 21.6202
      vertex -10.8087 -20 21.2787
      vertex -10.6029 -20 21.6202
    endloop
  endfacet
  facet normal -0.927627 0 0.373509
    outer loop
      vertex -11.6686 -20 19.4827
      vertex -11.5197 20 19.8525
      vertex -11.6686 20 19.4827
    endloop
  endfacet
  facet normal -0.927627 0 0.373509
    outer loop
      vertex -11.5197 20 19.8525
      vertex -11.6686 -20 19.4827
      vertex -11.5197 -20 19.8525
    endloop
  endfacet
  facet normal -0.975221 0 0.221231
    outer loop
      vertex -12.2323 -20 17.5729
      vertex -12.1441 20 17.9617
      vertex -12.2323 20 17.5729
    endloop
  endfacet
  facet normal -0.975221 0 0.221231
    outer loop
      vertex -12.1441 20 17.9617
      vertex -12.2323 -20 17.5729
      vertex -12.1441 -20 17.9617
    endloop
  endfacet
  facet normal -0.981712 0 0.190373
    outer loop
      vertex -12.3082 -20 17.1815
      vertex -12.2323 20 17.5729
      vertex -12.3082 20 17.1815
    endloop
  endfacet
  facet normal -0.981712 0 0.190373
    outer loop
      vertex -12.2323 20 17.5729
      vertex -12.3082 -20 17.1815
      vertex -12.2323 -20 17.5729
    endloop
  endfacet
  facet normal -0.991879 0 0.127183
    outer loop
      vertex -12.4222 -20 16.3925
      vertex -12.3715 20 16.7879
      vertex -12.4222 20 16.3925
    endloop
  endfacet
  facet normal -0.991879 0 0.127183
    outer loop
      vertex -12.3715 20 16.7879
      vertex -12.4222 -20 16.3925
      vertex -12.3715 -20 16.7879
    endloop
  endfacet
  facet normal -0.995424 0 0.0955547
    outer loop
      vertex -12.4603 -20 15.9956
      vertex -12.4222 20 16.3925
      vertex -12.4603 20 15.9956
    endloop
  endfacet
  facet normal -0.995424 0 0.0955547
    outer loop
      vertex -12.4222 20 16.3925
      vertex -12.4603 -20 15.9956
      vertex -12.4222 -20 16.3925
    endloop
  endfacet
  facet normal -0.675477 0 0.737381
    outer loop
      vertex -8.58875 20 24.082
      vertex -8.29477 -20 24.3513
      vertex -8.29477 20 24.3513
    endloop
  endfacet
  facet normal -0.675477 0 0.737381
    outer loop
      vertex -8.29477 -20 24.3513
      vertex -8.58875 20 24.082
      vertex -8.58875 -20 24.082
    endloop
  endfacet
  facet normal -0.69859 0 0.715522
    outer loop
      vertex -8.874 20 23.8035
      vertex -8.58875 -20 24.082
      vertex -8.58875 20 24.082
    endloop
  endfacet
  facet normal -0.69859 0 0.715522
    outer loop
      vertex -8.58875 -20 24.082
      vertex -8.874 20 23.8035
      vertex -8.874 -20 23.8035
    endloop
  endfacet
  facet normal -0.438977 0 0.898498
    outer loop
      vertex -5.666 20 26.1421
      vertex -5.30781 -20 26.3171
      vertex -5.30781 20 26.3171
    endloop
  endfacet
  facet normal -0.438977 0 0.898498
    outer loop
      vertex -5.30781 -20 26.3171
      vertex -5.666 20 26.1421
      vertex -5.666 -20 26.1421
    endloop
  endfacet
  facet normal -0.601961 0 0.798526
    outer loop
      vertex -7.6818 20 24.861
      vertex -7.36343 -20 25.101
      vertex -7.36343 20 25.101
    endloop
  endfacet
  facet normal -0.601961 0 0.798526
    outer loop
      vertex -7.36343 -20 25.101
      vertex -7.6818 20 24.861
      vertex -7.6818 -20 24.861
    endloop
  endfacet
  facet normal -0.626926 0 0.779079
    outer loop
      vertex -7.99235 20 24.6111
      vertex -7.6818 -20 24.861
      vertex -7.6818 20 24.861
    endloop
  endfacet
  facet normal -0.626926 0 0.779079
    outer loop
      vertex -7.6818 -20 24.861
      vertex -7.99235 20 24.6111
      vertex -7.99235 -20 24.6111
    endloop
  endfacet
  facet normal -0.350947 0 0.936395
    outer loop
      vertex -4.5756 20 26.6325
      vertex -4.20232 -20 26.7724
      vertex -4.20232 20 26.7724
    endloop
  endfacet
  facet normal -0.350947 0 0.936395
    outer loop
      vertex -4.20232 -20 26.7724
      vertex -4.5756 20 26.6325
      vertex -4.5756 -20 26.6325
    endloop
  endfacet
  facet normal -0.380997 0 0.924576
    outer loop
      vertex -4.94422 20 26.4806
      vertex -4.5756 -20 26.6325
      vertex -4.5756 20 26.6325
    endloop
  endfacet
  facet normal -0.380997 0 0.924576
    outer loop
      vertex -4.5756 -20 26.6325
      vertex -4.94422 20 26.4806
      vertex -4.94422 -20 26.4806
    endloop
  endfacet
  facet normal -0.0714906 0 0.997441
    outer loop
      vertex -1.09496 20 27.452
      vertex -0.697326 -20 27.4805
      vertex -0.697326 20 27.4805
    endloop
  endfacet
  facet normal -0.0714906 0 0.997441
    outer loop
      vertex -0.697326 -20 27.4805
      vertex -1.09496 20 27.452
      vertex -1.09496 -20 27.452
    endloop
  endfacet
  facet normal 0.989728 -0 0.142966
    outer loop
      vertex 12.3414 -20 16.985
      vertex 12.3984 20 16.5904
      vertex 12.3414 20 16.985
    endloop
  endfacet
  facet normal 0.989728 0 0.142966
    outer loop
      vertex 12.3984 20 16.5904
      vertex 12.3414 -20 16.985
      vertex 12.3984 -20 16.5904
    endloop
  endfacet
  facet normal 0.984639 -0 0.174601
    outer loop
      vertex 12.2718 -20 17.3775
      vertex 12.3414 20 16.985
      vertex 12.2718 20 17.3775
    endloop
  endfacet
  facet normal 0.984639 0 0.174601
    outer loop
      vertex 12.3414 20 16.985
      vertex 12.2718 -20 17.3775
      vertex 12.3414 -20 16.985
    endloop
  endfacet
  facet normal 0.996814 -0 0.0797652
    outer loop
      vertex 12.4428 -20 16.1942
      vertex 12.4746 20 15.7968
      vertex 12.4428 20 16.1942
    endloop
  endfacet
  facet normal 0.996814 0 0.0797652
    outer loop
      vertex 12.4746 20 15.7968
      vertex 12.4428 -20 16.1942
      vertex 12.4746 -20 15.7968
    endloop
  endfacet
  facet normal -0 0 1
    outer loop
      vertex 12.5 2.5 -5
      vertex 13.499 -2.5 -5
      vertex 13.499 2.5 -5
    endloop
  endfacet
  facet normal 0 0 1
    outer loop
      vertex 13.499 -2.5 -5
      vertex 12.5 2.5 -5
      vertex 12.5 -2.5 -5
    endloop
  endfacet
  facet normal 1 -0 0
    outer loop
      vertex 13.499 -2.5 -5
      vertex 13.499 2.5 -15
      vertex 13.499 2.5 -5
    endloop
  endfacet
  facet normal 1 0 0
    outer loop
      vertex 13.499 2.5 -15
      vertex 13.499 -2.5 -5
      vertex 13.499 -2.5 -15
    endloop
  endfacet
  facet normal 0 -1 0
    outer loop
      vertex 12.5 -2.5 -15
      vertex 13.499 -2.5 -5
      vertex 12.5 -2.5 -5
    endloop
  endfacet
  facet normal 0 -1 -0
    outer loop
      vertex 13.499 -2.5 -5
      vertex 12.5 -2.5 -15
      vertex 13.499 -2.5 -15
    endloop
  endfacet
  facet normal 0 1 -0
    outer loop
      vertex 13.499 2.5 -15
      vertex 12.5 2.5 -5
      vertex 13.499 2.5 -5
    endloop
  endfacet
  facet normal 0 1 0
    outer loop
      vertex 12.5 2.5 -5
      vertex 13.499 2.5 -15
      vertex 12.5 2.5 -15
    endloop
  endfacet
  facet normal -0 0 1
    outer loop
      vertex 12.5 13.5 -3.5
      vertex 13.499 6.5 -3.5
      vertex 13.499 13.5 -3.5
    endloop
  endfacet
  facet normal 0 0 1
    outer loop
      vertex 13.499 6.5 -3.5
      vertex 12.5 13.5 -3.5
      vertex 12.5 6.5 -3.5
    endloop
  endfacet
  facet normal 1 -0 0
    outer loop
      vertex 13.499 6.5 -3.5
      vertex 13.499 13.5 -10.5
      vertex 13.499 13.5 -3.5
    endloop
  endfacet
  facet normal 1 0 0
    outer loop
      vertex 13.499 13.5 -10.5
      vertex 13.499 6.5 -3.5
      vertex 13.499 6.5 -10.5
    endloop
  endfacet
  facet normal 0 1 -0
    outer loop
      vertex 13.499 13.5 -10.5
      vertex 12.5 13.5 -3.5
      vertex 13.499 13.5 -3.5
    endloop
  endfacet
  facet normal 0 1 0
    outer loop
      vertex 12.5 13.5 -3.5
      vertex 13.499 13.5 -10.5
      vertex 12.5 13.5 -10.5
    endloop
  endfacet
  facet normal 0 0 -1
    outer loop
      vertex 12.5 6.5 -10.5
      vertex 13.499 13.5 -10.5
      vertex 13.499 6.5 -10.5
    endloop
  endfacet
  facet normal -0 0 -1
    outer loop
      vertex 13.499 13.5 -10.5
      vertex 12.5 6.5 -10.5
      vertex 12.5 13.5 -10.5
    endloop
  endfacet
  facet normal 0 -1 0
    outer loop
      vertex 12.5 6.5 -10.5
      vertex 13.499 6.5 -3.5
      vertex 12.5 6.5 -3.5
    endloop
  endfacet
  facet normal 0 -1 -0
    outer loop
      vertex 13.499 6.5 -3.5
      vertex 12.5 6.5 -10.5
      vertex 13.499 6.5 -10.5
    endloop
  endfacet
  facet normal -0 0 1
    outer loop
      vertex 12.5 -6.5 -3.5
      vertex 13.499 -13.5 -3.5
      vertex 13.499 -6.5 -3.5
    endloop
  endfacet
  facet normal 0 0 1
    outer loop
      vertex 13.499 -13.5 -3.5
      vertex 12.5 -6.5 -3.5
      vertex 12.5 -13.5 -3.5
    endloop
  endfacet
  facet normal 1 -0 0
    outer loop
      vertex 13.499 -13.5 -3.5
      vertex 13.499 -6.5 -10.5
      vertex 13.499 -6.5 -3.5
    endloop
  endfacet
  facet normal 1 0 0
    outer loop
      vertex 13.499 -6.5 -10.5
      vertex 13.499 -13.5 -3.5
      vertex 13.499 -13.5 -10.5
    endloop
  endfacet
  facet normal 0 0 -1
    outer loop
      vertex 12.5 -13.5 -10.5
      vertex 13.499 -6.5 -10.5
      vertex 13.499 -13.5 -10.5
    endloop
  endfacet
  facet normal -0 0 -1
    outer loop
      vertex 13.499 -6.5 -10.5
      vertex 12.5 -13.5 -10.5
      vertex 12.5 -6.5 -10.5
    endloop
  endfacet
  facet normal 0 -1 0
    outer loop
      vertex 12.5 -13.5 -10.5
      vertex 13.499 -13.5 -3.5
      vertex 12.5 -13.5 -3.5
    endloop
  endfacet
  facet normal 0 -1 -0
    outer loop
      vertex 13.499 -13.5 -3.5
      vertex 12.5 -13.5 -10.5
      vertex 13.499 -13.5 -10.5
    endloop
  endfacet
  facet normal 0 1 -0
    outer loop
      vertex 13.499 -6.5 -10.5
      vertex 12.5 -6.5 -3.5
      vertex 13.499 -6.5 -3.5
    endloop
  endfacet
  facet normal 0 1 0
    outer loop
      vertex 12.5 -6.5 -3.5
      vertex 13.499 -6.5 -10.5
      vertex 12.5 -6.5 -10.5
    endloop
  endfacet
  facet normal -0 0 1
    outer loop
      vertex 12.5 13.5 10.5
      vertex 13.499 6.5 10.5
      vertex 13.499 13.5 10.5
    endloop
  endfacet
  facet normal 0 0 1
    outer loop
      vertex 13.499 6.5 10.5
      vertex 12.5 13.5 10.5
      vertex 12.5 6.5 10.5
    endloop
  endfacet
  facet normal 1 -0 0
    outer loop
      vertex 13.499 6.5 10.5
      vertex 13.499 13.5 3.5
      vertex 13.499 13.5 10.5
    endloop
  endfacet
  facet normal 1 0 0
    outer loop
      vertex 13.499 13.5 3.5
      vertex 13.499 6.5 10.5
      vertex 13.499 6.5 3.5
    endloop
  endfacet
  facet normal 0 1 -0
    outer loop
      vertex 13.499 13.5 3.5
      vertex 12.5 13.5 10.5
      vertex 13.499 13.5 10.5
    endloop
  endfacet
  facet normal 0 1 0
    outer loop
      vertex 12.5 13.5 10.5
      vertex 13.499 13.5 3.5
      vertex 12.5 13.5 3.5
    endloop
  endfacet
  facet normal 0 0 -1
    outer loop
      vertex 12.5 6.5 3.5
      vertex 13.499 13.5 3.5
      vertex 13.499 6.5 3.5
    endloop
  endfacet
  facet normal -0 0 -1
    outer loop
      vertex 13.499 13.5 3.5
      vertex 12.5 6.5 3.5
      vertex 12.5 13.5 3.5
    endloop
  endfacet
  facet normal 0 -1 0
    outer loop
      vertex 12.5 6.5 3.5
      vertex 13.499 6.5 10.5
      vertex 12.5 6.5 10.5
    endloop
  endfacet
  facet normal 0 -1 -0
    outer loop
      vertex 13.499 6.5 10.5
      vertex 12.5 6.5 3.5
      vertex 13.499 6.5 3.5
    endloop
  endfacet
  facet normal -0 0 1
    outer loop
      vertex 12.5 -6.5 10.5
      vertex 13.499 -13.5 10.5
      vertex 13.499 -6.5 10.5
    endloop
  endfacet
  facet normal 0 0 1
    outer loop
      vertex 13.499 -13.5 10.5
      vertex 12.5 -6.5 10.5
      vertex 12.5 -13.5 10.5
    endloop
  endfacet
  facet normal 1 -0 0
    outer loop
      vertex 13.499 -13.5 10.5
      vertex 13.499 -6.5 3.5
      vertex 13.499 -6.5 10.5
    endloop
  endfacet
  facet normal 1 0 0
    outer loop
      vertex 13.499 -6.5 3.5
      vertex 13.499 -13.5 10.5
      vertex 13.499 -13.5 3.5
    endloop
  endfacet
  facet normal 0 1 -0
    outer loop
      vertex 13.499 -6.5 3.5
      vertex 12.5 -6.5 10.5
      vertex 13.499 -6.5 10.5
    endloop
  endfacet
  facet normal 0 1 0
    outer loop
      vertex 12.5 -6.5 10.5
      vertex 13.499 -6.5 3.5
      vertex 12.5 -6.5 3.5
    endloop
  endfacet
  facet normal 0 0 -1
    outer loop
      vertex 12.5 -13.5 3.5
      vertex 13.499 -6.5 3.5
      vertex 13.499 -13.5 3.5
    endloop
  endfacet
  facet normal -0 0 -1
    outer loop
      vertex 13.499 -6.5 3.5
      vertex 12.5 -13.5 3.5
      vertex 12.5 -6.5 3.5
    endloop
  endfacet
  facet normal 0 -1 0
    outer loop
      vertex 12.5 -13.5 3.5
      vertex 13.499 -13.5 10.5
      vertex 12.5 -13.5 10.5
    endloop
  endfacet
  facet normal 0 -1 -0
    outer loop
      vertex 13.499 -13.5 10.5
      vertex 12.5 -13.5 3.5
      vertex 13.499 -13.5 3.5
    endloop
  endfacet
endsolid OpenSCAD_Model
